<svg xmlns="http://www.w3.org/2000/svg" width="500" height="220" viewBox="0 0 500 220" data-reactroot=""><style>text { font-family: &#x27;Segoe UI&#x27;, Ubuntu, Sans-Serif; fill: #333333; font-size: 12px; font-weight: 400; }</style><rect width="498" height="218" x="1" y="1" rx="10" fill="#ffffff" stroke="#e4e2e2"></rect><text x="25" y="35" style="fill:#3d7e9a;font-size:18px;font-weight:600">Top 10 Most Used Languages</text><g transform="translate(25, 50) scale(450, 8)"><rect fill="#2b7489" x="0" width="0.307859977733473" height="1"></rect><rect fill="#b07219" x="0.307859977733473" width="0.19037880552571235" height="1"></rect><rect fill="#f34b7d" x="0.49823878325918536" width="0.141820239865586" height="1"></rect><rect fill="#F18E33" x="0.6400590231247714" width="0.08602815289681848" height="1"></rect><rect fill="#f1e05a" x="0.7260871760215899" width="0.08573587151664808" height="1"></rect><rect fill="#dea584" x="0.811823047538238" width="0.07037958494272613" height="1"></rect><rect fill="#DA5B0B" x="0.8822026324809641" width="0.04556932427202008" height="1"></rect><rect fill="#3572A5" x="0.9277719567529842" width="0.02916791033870098" height="1"></rect><rect fill="#00ADD8" x="0.9569398670916852" width="0.023215112895897342" height="1"></rect><rect fill="#89e051" x="0.9801549799875826" width="0.01984502001241753" height="1"></rect></g><g transform="translate(25, 75)"><circle cx="8" cy="6" r="6" fill="#2b7489"></circle><text x="24" y="11">TypeScript 30.79%</text></g><g transform="translate(250, 75)"><circle cx="8" cy="6" r="6" fill="#b07219"></circle><text x="24" y="11">Java 19.04%</text></g><g transform="translate(25, 103)"><circle cx="8" cy="6" r="6" fill="#f34b7d"></circle><text x="24" y="11">C++ 14.18%</text></g><g transform="translate(250, 103)"><circle cx="8" cy="6" r="6" fill="#F18E33"></circle><text x="24" y="11">Kotlin 8.60%</text></g><g transform="translate(25, 131)"><circle cx="8" cy="6" r="6" fill="#f1e05a"></circle><text x="24" y="11">JavaScript 8.57%</text></g><g transform="translate(250, 131)"><circle cx="8" cy="6" r="6" fill="#dea584"></circle><text x="24" y="11">Rust 7.04%</text></g><g transform="translate(25, 159)"><circle cx="8" cy="6" r="6" fill="#DA5B0B"></circle><text x="24" y="11">Jupyter Notebook 4.56%</text></g><g transform="translate(250, 159)"><circle cx="8" cy="6" r="6" fill="#3572A5"></circle><text x="24" y="11">Python 2.92%</text></g><g transform="translate(25, 187)"><circle cx="8" cy="6" r="6" fill="#00ADD8"></circle><text x="24" y="11">Go 2.32%</text></g><g transform="translate(250, 187)"><circle cx="8" cy="6" r="6" fill="#89e051"></circle><text x="24" y="11">Shell 1.98%</text></g></svg>