<svg xmlns="http://www.w3.org/2000/svg" width="500" height="220" viewBox="0 0 500 220" data-reactroot=""><style>text { font-family: &#x27;Segoe UI&#x27;, Ubuntu, Sans-Serif; fill: #333333; font-size: 12px; font-weight: 400; }</style><rect width="498" height="218" x="1" y="1" rx="10" fill="#ffffff" stroke="#e4e2e2"></rect><text x="25" y="35" style="fill:#3d7e9a;font-size:18px;font-weight:600">Top 10 Most Used Languages</text><g transform="translate(25, 50) scale(450, 8)"><rect fill="#2b7489" x="0" width="0.31486514036018987" height="1"></rect><rect fill="#b07219" x="0.31486514036018987" width="0.19520702070207022" height="1"></rect><rect fill="#f34b7d" x="0.51007216106226" width="0.09833387184872333" height="1"></rect><rect fill="#f1e05a" x="0.6084060329109834" width="0.0945931131574696" height="1"></rect><rect fill="#F18E33" x="0.702999146068453" width="0.0934035711263434" height="1"></rect><rect fill="#dea584" x="0.7964027171947965" width="0.0764134105718264" height="1"></rect><rect fill="#DA5B0B" x="0.8728161277666229" width="0.04947610145629948" height="1"></rect><rect fill="#3572A5" x="0.9222922292229223" width="0.031668551470531665" height="1"></rect><rect fill="#00ADD8" x="0.953960780693454" width="0.025205405155900206" height="1"></rect><rect fill="#89e051" x="0.9791661858493542" width="0.020833814150645835" height="1"></rect></g><g transform="translate(25, 75)"><circle cx="8" cy="6" r="6" fill="#2b7489"></circle><text x="24" y="11">TypeScript 31.49%</text></g><g transform="translate(250, 75)"><circle cx="8" cy="6" r="6" fill="#b07219"></circle><text x="24" y="11">Java 19.52%</text></g><g transform="translate(25, 103)"><circle cx="8" cy="6" r="6" fill="#f34b7d"></circle><text x="24" y="11">C++ 9.83%</text></g><g transform="translate(250, 103)"><circle cx="8" cy="6" r="6" fill="#f1e05a"></circle><text x="24" y="11">JavaScript 9.46%</text></g><g transform="translate(25, 131)"><circle cx="8" cy="6" r="6" fill="#F18E33"></circle><text x="24" y="11">Kotlin 9.34%</text></g><g transform="translate(250, 131)"><circle cx="8" cy="6" r="6" fill="#dea584"></circle><text x="24" y="11">Rust 7.64%</text></g><g transform="translate(25, 159)"><circle cx="8" cy="6" r="6" fill="#DA5B0B"></circle><text x="24" y="11">Jupyter Notebook 4.95%</text></g><g transform="translate(250, 159)"><circle cx="8" cy="6" r="6" fill="#3572A5"></circle><text x="24" y="11">Python 3.17%</text></g><g transform="translate(25, 187)"><circle cx="8" cy="6" r="6" fill="#00ADD8"></circle><text x="24" y="11">Go 2.52%</text></g><g transform="translate(250, 187)"><circle cx="8" cy="6" r="6" fill="#89e051"></circle><text x="24" y="11">Shell 2.08%</text></g></svg>