<svg xmlns="http://www.w3.org/2000/svg" width="500" height="220" viewBox="0 0 500 220" data-reactroot=""><style>text { font-family: &#x27;Segoe UI&#x27;, Ubuntu, Sans-Serif; fill: #333333; font-size: 12px; font-weight: 400; }</style><rect width="498" height="218" x="1" y="1" rx="10" fill="#ffffff" stroke="#e4e2e2"></rect><text x="25" y="35" style="fill:#3d7e9a;font-size:18px;font-weight:600">Top 10 Most Used Languages</text><g transform="translate(25, 50) scale(450, 8)"><rect fill="#2b7489" x="0" width="0.31328184448545326" height="1"></rect><rect fill="#b07219" x="0.31328184448545326" width="0.18499077301619848" height="1"></rect><rect fill="#f34b7d" x="0.49827261750165175" width="0.13042626386895403" height="1"></rect><rect fill="#f1e05a" x="0.6286988813706058" width="0.08964253981272641" height="1"></rect><rect fill="#F18E33" x="0.7183414211833322" width="0.08851525300161757" height="1"></rect><rect fill="#dea584" x="0.8068566741849498" width="0.0724142801813501" height="1"></rect><rect fill="#DA5B0B" x="0.8792709543662999" width="0.0468867473173399" height="1"></rect><rect fill="#3572A5" x="0.9261577016836398" width="0.030011163511266033" height="1"></rect><rect fill="#00ADD8" x="0.9561688651949057" width="0.02388626888114278" height="1"></rect><rect fill="#89e051" x="0.9800551340760485" width="0.01994486592395143" height="1"></rect></g><g transform="translate(25, 75)"><circle cx="8" cy="6" r="6" fill="#2b7489"></circle><text x="24" y="11">TypeScript 31.33%</text></g><g transform="translate(250, 75)"><circle cx="8" cy="6" r="6" fill="#b07219"></circle><text x="24" y="11">Java 18.50%</text></g><g transform="translate(25, 103)"><circle cx="8" cy="6" r="6" fill="#f34b7d"></circle><text x="24" y="11">C++ 13.04%</text></g><g transform="translate(250, 103)"><circle cx="8" cy="6" r="6" fill="#f1e05a"></circle><text x="24" y="11">JavaScript 8.96%</text></g><g transform="translate(25, 131)"><circle cx="8" cy="6" r="6" fill="#F18E33"></circle><text x="24" y="11">Kotlin 8.85%</text></g><g transform="translate(250, 131)"><circle cx="8" cy="6" r="6" fill="#dea584"></circle><text x="24" y="11">Rust 7.24%</text></g><g transform="translate(25, 159)"><circle cx="8" cy="6" r="6" fill="#DA5B0B"></circle><text x="24" y="11">Jupyter Notebook 4.69%</text></g><g transform="translate(250, 159)"><circle cx="8" cy="6" r="6" fill="#3572A5"></circle><text x="24" y="11">Python 3.00%</text></g><g transform="translate(25, 187)"><circle cx="8" cy="6" r="6" fill="#00ADD8"></circle><text x="24" y="11">Go 2.39%</text></g><g transform="translate(250, 187)"><circle cx="8" cy="6" r="6" fill="#89e051"></circle><text x="24" y="11">Shell 1.99%</text></g></svg>