<svg xmlns="http://www.w3.org/2000/svg" width="500" height="220" viewbox="0 0 500 220"><rect width="498" height="218" x="1" y="1" rx="10" fill="#ffffff" stroke="#e4e2e2"></rect><text x="25" y="35" style="font-weight: 600; font-size: 18px; font-family: 'Segoe UI', Ubuntu, Sans-Serif; fill: #3d7e9a;">Top 10 Most Used Languages</text><g transform="translate(25, 50) scale(450, 8)"><rect fill="#2b7489" x="0" width="0.3421255890602866" height="1"></rect><rect fill="#b07219" x="0.3421255890602866" width="0.21159264389957128" height="1"></rect><rect fill="#f34b7d" x="0.5537182329598579" width="0.10648688145412548" height="1"></rect><rect fill="#f1e05a" x="0.6602051144139833" width="0.1024112774360594" height="1"></rect><rect fill="#dea584" x="0.7626163918500427" width="0.08282753106996593" height="1"></rect><rect fill="#DA5B0B" x="0.8454439229200086" width="0.053629111695524236" height="1"></rect><rect fill="#3572A5" x="0.8990730346155328" width="0.03432680090101077" height="1"></rect><rect fill="#89e051" x="0.9333998355165436" width="0.022969312056804123" height="1"></rect><rect fill="#00ADD8" x="0.9563691475733477" width="0.022834848394827006" height="1"></rect><rect fill="#00B4AB" x="0.9792039959681746" width="0.02079600403182515" height="1"></rect></g><g transform="translate(25, 75)"><circle cx="8" cy="6" r="6" fill="#2b7489"></circle><text x="24" y="11" style="font-weight: 400; font-size: 12px; font-family: 'Segoe UI', Ubuntu, Sans-Serif; fill: #333333;">TypeScript 34.21%</text></g><g transform="translate(250, 75)"><circle cx="8" cy="6" r="6" fill="#b07219"></circle><text x="24" y="11" style="font-weight: 400; font-size: 12px; font-family: 'Segoe UI', Ubuntu, Sans-Serif; fill: #333333;">Java 21.16%</text></g><g transform="translate(25, 103)"><circle cx="8" cy="6" r="6" fill="#f34b7d"></circle><text x="24" y="11" style="font-weight: 400; font-size: 12px; font-family: 'Segoe UI', Ubuntu, Sans-Serif; fill: #333333;">C++ 10.65%</text></g><g transform="translate(250, 103)"><circle cx="8" cy="6" r="6" fill="#f1e05a"></circle><text x="24" y="11" style="font-weight: 400; font-size: 12px; font-family: 'Segoe UI', Ubuntu, Sans-Serif; fill: #333333;">JavaScript 10.24%</text></g><g transform="translate(25, 131)"><circle cx="8" cy="6" r="6" fill="#dea584"></circle><text x="24" y="11" style="font-weight: 400; font-size: 12px; font-family: 'Segoe UI', Ubuntu, Sans-Serif; fill: #333333;">Rust 8.28%</text></g><g transform="translate(250, 131)"><circle cx="8" cy="6" r="6" fill="#DA5B0B"></circle><text x="24" y="11" style="font-weight: 400; font-size: 12px; font-family: 'Segoe UI', Ubuntu, Sans-Serif; fill: #333333;">Jupyter Notebook 5.36%</text></g><g transform="translate(25, 159)"><circle cx="8" cy="6" r="6" fill="#3572A5"></circle><text x="24" y="11" style="font-weight: 400; font-size: 12px; font-family: 'Segoe UI', Ubuntu, Sans-Serif; fill: #333333;">Python 3.43%</text></g><g transform="translate(250, 159)"><circle cx="8" cy="6" r="6" fill="#89e051"></circle><text x="24" y="11" style="font-weight: 400; font-size: 12px; font-family: 'Segoe UI', Ubuntu, Sans-Serif; fill: #333333;">Shell 2.30%</text></g><g transform="translate(25, 187)"><circle cx="8" cy="6" r="6" fill="#00ADD8"></circle><text x="24" y="11" style="font-weight: 400; font-size: 12px; font-family: 'Segoe UI', Ubuntu, Sans-Serif; fill: #333333;">Go 2.28%</text></g><g transform="translate(250, 187)"><circle cx="8" cy="6" r="6" fill="#00B4AB"></circle><text x="24" y="11" style="font-weight: 400; font-size: 12px; font-family: 'Segoe UI', Ubuntu, Sans-Serif; fill: #333333;">Dart 2.08%</text></g></svg>