<svg xmlns="http://www.w3.org/2000/svg" width="500" height="220" viewBox="0 0 500 220" data-reactroot=""><style>text { font-family: &#x27;Segoe UI&#x27;, Ubuntu, Sans-Serif; fill: #333333; font-size: 12px; font-weight: 400; }</style><rect width="498" height="218" x="1" y="1" rx="10" fill="#ffffff" stroke="#e4e2e2"></rect><text x="25" y="35" style="fill:#3d7e9a;font-size:18px;font-weight:600">Top 10 Most Used Languages</text><g transform="translate(25, 50) scale(450, 8)"><rect fill="#2b7489" x="0" width="0.29707171924486186" height="1"></rect><rect fill="#b07219" x="0.29707171924486186" width="0.1828848031883549" height="1"></rect><rect fill="#dea584" x="0.47995652243321674" width="0.12544291382987804" height="1"></rect><rect fill="#f34b7d" x="0.6053994362630948" width="0.1162691750020649" height="1"></rect><rect fill="#f1e05a" x="0.7216686112651597" width="0.07103556984139434" height="1"></rect><rect fill="#3572A5" x="0.792704181106554" width="0.06972929939621432" height="1"></rect><rect fill="#A97BFF" x="0.8624334805027684" width="0.06741660379401461" height="1"></rect><rect fill="#DA5B0B" x="0.929850084296783" width="0.03571074091631887" height="1"></rect><rect fill="#89e051" x="0.9655608252131018" width="0.018952720922468476" height="1"></rect><rect fill="#00ADD8" x="0.9845135461355703" width="0.015486453864429673" height="1"></rect></g><g transform="translate(25, 75)"><circle cx="8" cy="6" r="6" fill="#2b7489"></circle><text x="24" y="11">TypeScript 29.71%</text></g><g transform="translate(250, 75)"><circle cx="8" cy="6" r="6" fill="#b07219"></circle><text x="24" y="11">Java 18.29%</text></g><g transform="translate(25, 103)"><circle cx="8" cy="6" r="6" fill="#dea584"></circle><text x="24" y="11">Rust 12.54%</text></g><g transform="translate(250, 103)"><circle cx="8" cy="6" r="6" fill="#f34b7d"></circle><text x="24" y="11">C++ 11.63%</text></g><g transform="translate(25, 131)"><circle cx="8" cy="6" r="6" fill="#f1e05a"></circle><text x="24" y="11">JavaScript 7.10%</text></g><g transform="translate(250, 131)"><circle cx="8" cy="6" r="6" fill="#3572A5"></circle><text x="24" y="11">Python 6.97%</text></g><g transform="translate(25, 159)"><circle cx="8" cy="6" r="6" fill="#A97BFF"></circle><text x="24" y="11">Kotlin 6.74%</text></g><g transform="translate(250, 159)"><circle cx="8" cy="6" r="6" fill="#DA5B0B"></circle><text x="24" y="11">Jupyter Notebook 3.57%</text></g><g transform="translate(25, 187)"><circle cx="8" cy="6" r="6" fill="#89e051"></circle><text x="24" y="11">Shell 1.90%</text></g><g transform="translate(250, 187)"><circle cx="8" cy="6" r="6" fill="#00ADD8"></circle><text x="24" y="11">Go 1.55%</text></g></svg>