<svg xmlns="http://www.w3.org/2000/svg" width="500" height="220" viewBox="0 0 500 220" data-reactroot=""><style>text { font-family: &#x27;Segoe UI&#x27;, Ubuntu, Sans-Serif; fill: #333333; font-size: 12px; font-weight: 400; }</style><rect width="498" height="218" x="1" y="1" rx="10" fill="#ffffff" stroke="#e4e2e2"></rect><text x="25" y="35" style="fill:#3d7e9a;font-size:18px;font-weight:600">Top 10 Most Used Languages</text><g transform="translate(25, 50) scale(450, 8)"><rect fill="#2b7489" x="0" width="0.34008746961417796" height="1"></rect><rect fill="#b07219" x="0.34008746961417796" width="0.21087760487004217" height="1"></rect><rect fill="#f34b7d" x="0.5509650744842202" width="0.1061270283185473" height="1"></rect><rect fill="#f1e05a" x="0.6570921028027674" width="0.10218674035444932" height="1"></rect><rect fill="#dea584" x="0.7592788431572167" width="0.08254763042529763" height="1"></rect><rect fill="#DA5B0B" x="0.8418264735825144" width="0.05344788182252602" height="1"></rect><rect fill="#3572A5" x="0.8952743554050404" width="0.03421079969250587" height="1"></rect><rect fill="#00ADD8" x="0.9294851550975463" width="0.027228813031102615" height="1"></rect><rect fill="#89e051" x="0.9567139681286488" width="0.02256030416986973" height="1"></rect><rect fill="#00B4AB" x="0.9792742722985186" width="0.020725727701481372" height="1"></rect></g><g transform="translate(25, 75)"><circle cx="8" cy="6" r="6" fill="#2b7489"></circle><text x="24" y="11">TypeScript 34.01%</text></g><g transform="translate(250, 75)"><circle cx="8" cy="6" r="6" fill="#b07219"></circle><text x="24" y="11">Java 21.09%</text></g><g transform="translate(25, 103)"><circle cx="8" cy="6" r="6" fill="#f34b7d"></circle><text x="24" y="11">C++ 10.61%</text></g><g transform="translate(250, 103)"><circle cx="8" cy="6" r="6" fill="#f1e05a"></circle><text x="24" y="11">JavaScript 10.22%</text></g><g transform="translate(25, 131)"><circle cx="8" cy="6" r="6" fill="#dea584"></circle><text x="24" y="11">Rust 8.25%</text></g><g transform="translate(250, 131)"><circle cx="8" cy="6" r="6" fill="#DA5B0B"></circle><text x="24" y="11">Jupyter Notebook 5.34%</text></g><g transform="translate(25, 159)"><circle cx="8" cy="6" r="6" fill="#3572A5"></circle><text x="24" y="11">Python 3.42%</text></g><g transform="translate(250, 159)"><circle cx="8" cy="6" r="6" fill="#00ADD8"></circle><text x="24" y="11">Go 2.72%</text></g><g transform="translate(25, 187)"><circle cx="8" cy="6" r="6" fill="#89e051"></circle><text x="24" y="11">Shell 2.26%</text></g><g transform="translate(250, 187)"><circle cx="8" cy="6" r="6" fill="#00B4AB"></circle><text x="24" y="11">Dart 2.07%</text></g></svg>