<svg xmlns="http://www.w3.org/2000/svg" width="500" height="220" viewBox="0 0 500 220" data-reactroot=""><style>text { font-family: &#x27;Segoe UI&#x27;, Ubuntu, Sans-Serif; fill: #333333; font-size: 12px; font-weight: 400; }</style><rect width="498" height="218" x="1" y="1" rx="10" fill="#ffffff" stroke="#e4e2e2"></rect><text x="25" y="35" style="fill:#3d7e9a;font-size:18px;font-weight:600">Top 10 Most Used Languages</text><g transform="translate(25, 50) scale(450, 8)"><rect fill="#2b7489" x="0" width="0.280914728961414" height="1"></rect><rect fill="#b07219" x="0.280914728961414" width="0.24124634093834937" height="1"></rect><rect fill="#f34b7d" x="0.5221610698997634" width="0.1075105858701255" height="1"></rect><rect fill="#f1e05a" x="0.6296716557698889" width="0.10043990219059112" height="1"></rect><rect fill="#F18E33" x="0.73011155796048" width="0.08330610210979801" height="1"></rect><rect fill="#dea584" x="0.813417660070278" width="0.06815267667918017" height="1"></rect><rect fill="#DA5B0B" x="0.8815703367494582" width="0.04412744727220331" height="1"></rect><rect fill="#3572A5" x="0.9256977840216615" width="0.028244996959537402" height="1"></rect><rect fill="#e34c26" x="0.9539427809811989" width="0.023576664685434342" height="1"></rect><rect fill="#00ADD8" x="0.9775194456666332" width="0.022480554333366782" height="1"></rect></g><g transform="translate(25, 75)"><circle cx="8" cy="6" r="6" fill="#2b7489"></circle><text x="24" y="11">TypeScript 28.09%</text></g><g transform="translate(250, 75)"><circle cx="8" cy="6" r="6" fill="#b07219"></circle><text x="24" y="11">Java 24.12%</text></g><g transform="translate(25, 103)"><circle cx="8" cy="6" r="6" fill="#f34b7d"></circle><text x="24" y="11">C++ 10.75%</text></g><g transform="translate(250, 103)"><circle cx="8" cy="6" r="6" fill="#f1e05a"></circle><text x="24" y="11">JavaScript 10.04%</text></g><g transform="translate(25, 131)"><circle cx="8" cy="6" r="6" fill="#F18E33"></circle><text x="24" y="11">Kotlin 8.33%</text></g><g transform="translate(250, 131)"><circle cx="8" cy="6" r="6" fill="#dea584"></circle><text x="24" y="11">Rust 6.82%</text></g><g transform="translate(25, 159)"><circle cx="8" cy="6" r="6" fill="#DA5B0B"></circle><text x="24" y="11">Jupyter Notebook 4.41%</text></g><g transform="translate(250, 159)"><circle cx="8" cy="6" r="6" fill="#3572A5"></circle><text x="24" y="11">Python 2.82%</text></g><g transform="translate(25, 187)"><circle cx="8" cy="6" r="6" fill="#e34c26"></circle><text x="24" y="11">HTML 2.36%</text></g><g transform="translate(250, 187)"><circle cx="8" cy="6" r="6" fill="#00ADD8"></circle><text x="24" y="11">Go 2.25%</text></g></svg>