<svg xmlns="http://www.w3.org/2000/svg" width="500" height="220" viewBox="0 0 500 220" data-reactroot=""><style>text { font-family: &#x27;Segoe UI&#x27;, Ubuntu, Sans-Serif; fill: #333333; font-size: 12px; font-weight: 400; }</style><rect width="498" height="218" x="1" y="1" rx="10" fill="#ffffff" stroke="#e4e2e2"></rect><text x="25" y="35" style="fill:#3d7e9a;font-size:18px;font-weight:600">Top 10 Most Used Languages</text><g transform="translate(25, 50) scale(450, 8)"><rect fill="#2b7489" x="0" width="0.3120426313844179" height="1"></rect><rect fill="#b07219" x="0.3120426313844179" width="0.17536790036083436" height="1"></rect><rect fill="#f34b7d" x="0.4874105317452523" width="0.12558655264110813" height="1"></rect><rect fill="#dea584" x="0.6129970843863604" width="0.10298361213716954" height="1"></rect><rect fill="#f1e05a" x="0.7159806965235299" width="0.07598138625470723" height="1"></rect><rect fill="#A97BFF" x="0.7919620827782371" width="0.07281911874846779" height="1"></rect><rect fill="#3572A5" x="0.8647812015267049" width="0.05960701816467032" height="1"></rect><rect fill="#DA5B0B" x="0.9243882196913752" width="0.03857246638122792" height="1"></rect><rect fill="#89e051" x="0.9629606860726031" width="0.02031183346290783" height="1"></rect><rect fill="#00ADD8" x="0.983272519535511" width="0.016727480464488964" height="1"></rect></g><g transform="translate(25, 75)"><circle cx="8" cy="6" r="6" fill="#2b7489"></circle><text x="24" y="11">TypeScript 31.20%</text></g><g transform="translate(250, 75)"><circle cx="8" cy="6" r="6" fill="#b07219"></circle><text x="24" y="11">Java 17.54%</text></g><g transform="translate(25, 103)"><circle cx="8" cy="6" r="6" fill="#f34b7d"></circle><text x="24" y="11">C++ 12.56%</text></g><g transform="translate(250, 103)"><circle cx="8" cy="6" r="6" fill="#dea584"></circle><text x="24" y="11">Rust 10.30%</text></g><g transform="translate(25, 131)"><circle cx="8" cy="6" r="6" fill="#f1e05a"></circle><text x="24" y="11">JavaScript 7.60%</text></g><g transform="translate(250, 131)"><circle cx="8" cy="6" r="6" fill="#A97BFF"></circle><text x="24" y="11">Kotlin 7.28%</text></g><g transform="translate(25, 159)"><circle cx="8" cy="6" r="6" fill="#3572A5"></circle><text x="24" y="11">Python 5.96%</text></g><g transform="translate(250, 159)"><circle cx="8" cy="6" r="6" fill="#DA5B0B"></circle><text x="24" y="11">Jupyter Notebook 3.86%</text></g><g transform="translate(25, 187)"><circle cx="8" cy="6" r="6" fill="#89e051"></circle><text x="24" y="11">Shell 2.03%</text></g><g transform="translate(250, 187)"><circle cx="8" cy="6" r="6" fill="#00ADD8"></circle><text x="24" y="11">Go 1.67%</text></g></svg>