<svg xmlns="http://www.w3.org/2000/svg" width="500" height="220" viewBox="0 0 500 220" data-reactroot=""><style>text { font-family: &#x27;Segoe UI&#x27;, Ubuntu, Sans-Serif; fill: #333333; font-size: 12px; font-weight: 400; }</style><rect width="498" height="218" x="1" y="1" rx="10" fill="#ffffff" stroke="#e4e2e2"></rect><text x="25" y="35" style="fill:#3d7e9a;font-size:18px;font-weight:600">Top 10 Most Used Languages</text><g transform="translate(25, 50) scale(450, 8)"><rect fill="#2b7489" x="0" width="0.3413015133779613" height="1"></rect><rect fill="#b07219" x="0.3413015133779613" width="0.2114011555492608" height="1"></rect><rect fill="#f34b7d" x="0.5527026689272221" width="0.10639051233238496" height="1"></rect><rect fill="#f1e05a" x="0.659093181259607" width="0.10239774388796087" height="1"></rect><rect fill="#dea584" x="0.7614909251475679" width="0.0827525733257241" height="1"></rect><rect fill="#DA5B0B" x="0.8442434984732919" width="0.05358057810788181" height="1"></rect><rect fill="#3572A5" x="0.8978240765811738" width="0.03429573563165722" height="1"></rect><rect fill="#00ADD8" x="0.932119812212831" width="0.024232584489646294" height="1"></rect><rect fill="#89e051" x="0.9563523967024773" width="0.022870419355241835" height="1"></rect><rect fill="#00B4AB" x="0.9792228160577191" width="0.020777183942280855" height="1"></rect></g><g transform="translate(25, 75)"><circle cx="8" cy="6" r="6" fill="#2b7489"></circle><text x="24" y="11">TypeScript 34.13%</text></g><g transform="translate(250, 75)"><circle cx="8" cy="6" r="6" fill="#b07219"></circle><text x="24" y="11">Java 21.14%</text></g><g transform="translate(25, 103)"><circle cx="8" cy="6" r="6" fill="#f34b7d"></circle><text x="24" y="11">C++ 10.64%</text></g><g transform="translate(250, 103)"><circle cx="8" cy="6" r="6" fill="#f1e05a"></circle><text x="24" y="11">JavaScript 10.24%</text></g><g transform="translate(25, 131)"><circle cx="8" cy="6" r="6" fill="#dea584"></circle><text x="24" y="11">Rust 8.28%</text></g><g transform="translate(250, 131)"><circle cx="8" cy="6" r="6" fill="#DA5B0B"></circle><text x="24" y="11">Jupyter Notebook 5.36%</text></g><g transform="translate(25, 159)"><circle cx="8" cy="6" r="6" fill="#3572A5"></circle><text x="24" y="11">Python 3.43%</text></g><g transform="translate(250, 159)"><circle cx="8" cy="6" r="6" fill="#00ADD8"></circle><text x="24" y="11">Go 2.42%</text></g><g transform="translate(25, 187)"><circle cx="8" cy="6" r="6" fill="#89e051"></circle><text x="24" y="11">Shell 2.29%</text></g><g transform="translate(250, 187)"><circle cx="8" cy="6" r="6" fill="#00B4AB"></circle><text x="24" y="11">Dart 2.08%</text></g></svg>