<svg xmlns="http://www.w3.org/2000/svg" width="500" height="220" viewBox="0 0 500 220" data-reactroot=""><style>text { font-family: &#x27;Segoe UI&#x27;, Ubuntu, Sans-Serif; fill: #333333; font-size: 12px; font-weight: 400; }</style><rect width="498" height="218" x="1" y="1" rx="10" fill="#ffffff" stroke="#e4e2e2"></rect><text x="25" y="35" style="fill:#3d7e9a;font-size:18px;font-weight:600">Top 10 Most Used Languages</text><g transform="translate(25, 50) scale(450, 8)"><rect fill="#2b7489" x="0" width="0.33217317665955837" height="1"></rect><rect fill="#b07219" x="0.33217317665955837" width="0.18232594816293685" height="1"></rect><rect fill="#f34b7d" x="0.5144991248224953" width="0.12789087888547238" height="1"></rect><rect fill="#f1e05a" x="0.6423900037079676" width="0.08250389822357587" height="1"></rect><rect fill="#A97BFF" x="0.7248939019315435" width="0.07863643944435539" height="1"></rect><rect fill="#dea584" x="0.8035303413758988" width="0.0684549109521057" height="1"></rect><rect fill="#3572A5" x="0.8719852523280045" width="0.04320591849919607" height="1"></rect><rect fill="#DA5B0B" x="0.9151911708272006" width="0.041653915468054" height="1"></rect><rect fill="#89e051" x="0.9568450862952546" width="0.021934490413527442" height="1"></rect><rect fill="#00ADD8" x="0.978779576708782" width="0.021220423291217944" height="1"></rect></g><g transform="translate(25, 75)"><circle cx="8" cy="6" r="6" fill="#2b7489"></circle><text x="24" y="11">TypeScript 33.22%</text></g><g transform="translate(250, 75)"><circle cx="8" cy="6" r="6" fill="#b07219"></circle><text x="24" y="11">Java 18.23%</text></g><g transform="translate(25, 103)"><circle cx="8" cy="6" r="6" fill="#f34b7d"></circle><text x="24" y="11">C++ 12.79%</text></g><g transform="translate(250, 103)"><circle cx="8" cy="6" r="6" fill="#f1e05a"></circle><text x="24" y="11">JavaScript 8.25%</text></g><g transform="translate(25, 131)"><circle cx="8" cy="6" r="6" fill="#A97BFF"></circle><text x="24" y="11">Kotlin 7.86%</text></g><g transform="translate(250, 131)"><circle cx="8" cy="6" r="6" fill="#dea584"></circle><text x="24" y="11">Rust 6.85%</text></g><g transform="translate(25, 159)"><circle cx="8" cy="6" r="6" fill="#3572A5"></circle><text x="24" y="11">Python 4.32%</text></g><g transform="translate(250, 159)"><circle cx="8" cy="6" r="6" fill="#DA5B0B"></circle><text x="24" y="11">Jupyter Notebook 4.17%</text></g><g transform="translate(25, 187)"><circle cx="8" cy="6" r="6" fill="#89e051"></circle><text x="24" y="11">Shell 2.19%</text></g><g transform="translate(250, 187)"><circle cx="8" cy="6" r="6" fill="#00ADD8"></circle><text x="24" y="11">Go 2.12%</text></g></svg>