<svg xmlns="http://www.w3.org/2000/svg" width="500" height="220" viewBox="0 0 500 220"><style>
  text { font-family: &#x27;Segoe UI&#x27;, Ubuntu, Sans-Serif; }
  .lang { fill: #333333; font-size: 12px; font-weight: 400; }
  .title { fill: #3d7e9a; font-size: 18px; font-weight: 600; }
  .bg { fill: #ffffff; stroke: #e4e2e2; }

  @media (prefers-color-scheme: dark) {
    .lang { fill: #c9d1d9; }
    .title { fill: #58a6ff; }
    .bg { fill: #0d1117; stroke: #30363d; }
  }
</style><rect class="bg" width="498" height="218" x="1" y="1" rx="10"></rect><text x="25" y="35" class="title">Top 10 Most Used Languages</text><g transform="translate(25, 50) scale(450, 8)"><rect fill="#3178c6" x="0" width="0.3477562529157386" height="1"></rect><rect fill="#dea584" x="0.3477562529157386" width="0.17540698416854206" height="1"></rect><rect fill="#b07219" x="0.5231632370842807" width="0.15445922714558255" height="1"></rect><rect fill="#f34b7d" x="0.6776224642298633" width="0.10890857206294081" height="1"></rect><rect fill="#3572A5" x="0.7865310362928041" width="0.07416933133892" height="1"></rect><rect fill="#A97BFF" x="0.8607003676317241" width="0.06764192708583999" height="1"></rect><rect fill="#00B4AB" x="0.9283422947175641" width="0.022907518386398974" height="1"></rect><rect fill="#f1e05a" x="0.9512498131039631" width="0.018582439280445444" height="1"></rect><rect fill="#89e051" x="0.9698322523844085" width="0.015850067346743647" height="1"></rect><rect fill="#00ADD8" x="0.9856823197311522" width="0.014317680268847943" height="1"></rect></g><g transform="translate(25, 75)"><circle cx="8" cy="6" r="6" fill="#3178c6"></circle><text x="24" y="11" class="lang">TypeScript 34.78%</text></g><g transform="translate(250, 75)"><circle cx="8" cy="6" r="6" fill="#dea584"></circle><text x="24" y="11" class="lang">Rust 17.54%</text></g><g transform="translate(25, 103)"><circle cx="8" cy="6" r="6" fill="#b07219"></circle><text x="24" y="11" class="lang">Java 15.45%</text></g><g transform="translate(250, 103)"><circle cx="8" cy="6" r="6" fill="#f34b7d"></circle><text x="24" y="11" class="lang">C++ 10.89%</text></g><g transform="translate(25, 131)"><circle cx="8" cy="6" r="6" fill="#3572A5"></circle><text x="24" y="11" class="lang">Python 7.42%</text></g><g transform="translate(250, 131)"><circle cx="8" cy="6" r="6" fill="#A97BFF"></circle><text x="24" y="11" class="lang">Kotlin 6.76%</text></g><g transform="translate(25, 159)"><circle cx="8" cy="6" r="6" fill="#00B4AB"></circle><text x="24" y="11" class="lang">Dart 2.29%</text></g><g transform="translate(250, 159)"><circle cx="8" cy="6" r="6" fill="#f1e05a"></circle><text x="24" y="11" class="lang">JavaScript 1.86%</text></g><g transform="translate(25, 187)"><circle cx="8" cy="6" r="6" fill="#89e051"></circle><text x="24" y="11" class="lang">Shell 1.59%</text></g><g transform="translate(250, 187)"><circle cx="8" cy="6" r="6" fill="#00ADD8"></circle><text x="24" y="11" class="lang">Go 1.43%</text></g></svg>