<svg xmlns="http://www.w3.org/2000/svg" width="500" height="220" viewBox="0 0 500 220" data-reactroot=""><style>text { font-family: &#x27;Segoe UI&#x27;, Ubuntu, Sans-Serif; fill: #333333; font-size: 12px; font-weight: 400; }</style><rect width="498" height="218" x="1" y="1" rx="10" fill="#ffffff" stroke="#e4e2e2"></rect><text x="25" y="35" style="fill:#3d7e9a;font-size:18px;font-weight:600">Top 10 Most Used Languages</text><g transform="translate(25, 50) scale(450, 8)"><rect fill="#2b7489" x="0" width="0.30570181250781575" height="1"></rect><rect fill="#b07219" x="0.30570181250781575" width="0.18943982291139783" height="1"></rect><rect fill="#f34b7d" x="0.4951416354192136" width="0.1246274102845027" height="1"></rect><rect fill="#f1e05a" x="0.6197690457037163" width="0.09179845346104816" height="1"></rect><rect fill="#F18E33" x="0.7115674991647645" width="0.09064405526926314" height="1"></rect><rect fill="#dea584" x="0.8022115544340276" width="0.07415585215490773" height="1"></rect><rect fill="#DA5B0B" x="0.8763674065889353" width="0.04801437911668474" height="1"></rect><rect fill="#3572A5" x="0.92438178570562" width="0.030732935531013836" height="1"></rect><rect fill="#00ADD8" x="0.9551147212366339" width="0.02446073646311805" height="1"></rect><rect fill="#89e051" x="0.979575457699752" width="0.020424542300248053" height="1"></rect></g><g transform="translate(25, 75)"><circle cx="8" cy="6" r="6" fill="#2b7489"></circle><text x="24" y="11">TypeScript 30.57%</text></g><g transform="translate(250, 75)"><circle cx="8" cy="6" r="6" fill="#b07219"></circle><text x="24" y="11">Java 18.94%</text></g><g transform="translate(25, 103)"><circle cx="8" cy="6" r="6" fill="#f34b7d"></circle><text x="24" y="11">C++ 12.46%</text></g><g transform="translate(250, 103)"><circle cx="8" cy="6" r="6" fill="#f1e05a"></circle><text x="24" y="11">JavaScript 9.18%</text></g><g transform="translate(25, 131)"><circle cx="8" cy="6" r="6" fill="#F18E33"></circle><text x="24" y="11">Kotlin 9.06%</text></g><g transform="translate(250, 131)"><circle cx="8" cy="6" r="6" fill="#dea584"></circle><text x="24" y="11">Rust 7.42%</text></g><g transform="translate(25, 159)"><circle cx="8" cy="6" r="6" fill="#DA5B0B"></circle><text x="24" y="11">Jupyter Notebook 4.80%</text></g><g transform="translate(250, 159)"><circle cx="8" cy="6" r="6" fill="#3572A5"></circle><text x="24" y="11">Python 3.07%</text></g><g transform="translate(25, 187)"><circle cx="8" cy="6" r="6" fill="#00ADD8"></circle><text x="24" y="11">Go 2.45%</text></g><g transform="translate(250, 187)"><circle cx="8" cy="6" r="6" fill="#89e051"></circle><text x="24" y="11">Shell 2.04%</text></g></svg>