<svg xmlns="http://www.w3.org/2000/svg" width="500" height="220" viewBox="0 0 500 220" data-reactroot=""><style>text { font-family: &#x27;Segoe UI&#x27;, Ubuntu, Sans-Serif; fill: #333333; font-size: 12px; font-weight: 400; }</style><rect width="498" height="218" x="1" y="1" rx="10" fill="#ffffff" stroke="#e4e2e2"></rect><text x="25" y="35" style="fill:#3d7e9a;font-size:18px;font-weight:600">Top 10 Most Used Languages</text><g transform="translate(25, 50) scale(450, 8)"><rect fill="#2b7489" x="0" width="0.3327022134005257" height="1"></rect><rect fill="#b07219" x="0.3327022134005257" width="0.17210554765861177" height="1"></rect><rect fill="#dea584" x="0.5048077610591375" width="0.15440106051029193" height="1"></rect><rect fill="#f34b7d" x="0.6592088215694294" width="0.1180618516601219" height="1"></rect><rect fill="#3572A5" x="0.7772706732295513" width="0.08264286715306755" height="1"></rect><rect fill="#A97BFF" x="0.8599135403826189" width="0.07527463727287548" height="1"></rect><rect fill="#f1e05a" x="0.9351881776554944" width="0.020691104927025566" height="1"></rect><rect fill="#89e051" x="0.95587928258252" width="0.017660871231513286" height="1"></rect><rect fill="#00ADD8" x="0.9735401538140332" width="0.015953415340790464" height="1"></rect><rect fill="#555555" x="0.9894935691548237" width="0.010506430845176365" height="1"></rect></g><g transform="translate(25, 75)"><circle cx="8" cy="6" r="6" fill="#2b7489"></circle><text x="24" y="11">TypeScript 33.27%</text></g><g transform="translate(250, 75)"><circle cx="8" cy="6" r="6" fill="#b07219"></circle><text x="24" y="11">Java 17.21%</text></g><g transform="translate(25, 103)"><circle cx="8" cy="6" r="6" fill="#dea584"></circle><text x="24" y="11">Rust 15.44%</text></g><g transform="translate(250, 103)"><circle cx="8" cy="6" r="6" fill="#f34b7d"></circle><text x="24" y="11">C++ 11.81%</text></g><g transform="translate(25, 131)"><circle cx="8" cy="6" r="6" fill="#3572A5"></circle><text x="24" y="11">Python 8.26%</text></g><g transform="translate(250, 131)"><circle cx="8" cy="6" r="6" fill="#A97BFF"></circle><text x="24" y="11">Kotlin 7.53%</text></g><g transform="translate(25, 159)"><circle cx="8" cy="6" r="6" fill="#f1e05a"></circle><text x="24" y="11">JavaScript 2.07%</text></g><g transform="translate(250, 159)"><circle cx="8" cy="6" r="6" fill="#89e051"></circle><text x="24" y="11">Shell 1.77%</text></g><g transform="translate(25, 187)"><circle cx="8" cy="6" r="6" fill="#00ADD8"></circle><text x="24" y="11">Go 1.60%</text></g><g transform="translate(250, 187)"><circle cx="8" cy="6" r="6" fill="#555555"></circle><text x="24" y="11">C 1.05%</text></g></svg>