<svg xmlns="http://www.w3.org/2000/svg" width="500" height="220" viewBox="0 0 500 220" data-reactroot=""><style>text { font-family: &#x27;Segoe UI&#x27;, Ubuntu, Sans-Serif; fill: #333333; font-size: 12px; font-weight: 400; }</style><rect width="498" height="218" x="1" y="1" rx="10" fill="#ffffff" stroke="#e4e2e2"></rect><text x="25" y="35" style="fill:#3d7e9a;font-size:18px;font-weight:600">Top 10 Most Used Languages</text><g transform="translate(25, 50) scale(450, 8)"><rect fill="#2b7489" x="0" width="0.30783543921518963" height="1"></rect><rect fill="#b07219" x="0.30783543921518963" width="0.19036363104985302" height="1"></rect><rect fill="#f34b7d" x="0.4981990702650426" width="0.14180893583518062" height="1"></rect><rect fill="#F18E33" x="0.6400080061002232" width="0.08602129587234167" height="1"></rect><rect fill="#f1e05a" x="0.7260293019725649" width="0.08580874453898059" height="1"></rect><rect fill="#dea584" x="0.8118380465115455" width="0.07037397521474327" height="1"></rect><rect fill="#DA5B0B" x="0.8822120217262888" width="0.04556569208928219" height="1"></rect><rect fill="#3572A5" x="0.927777713815571" width="0.029165585459363284" height="1"></rect><rect fill="#00ADD8" x="0.9569432992749343" width="0.02321326249469729" height="1"></rect><rect fill="#89e051" x="0.9801565617696315" width="0.019843438230368448" height="1"></rect></g><g transform="translate(25, 75)"><circle cx="8" cy="6" r="6" fill="#2b7489"></circle><text x="24" y="11">TypeScript 30.78%</text></g><g transform="translate(250, 75)"><circle cx="8" cy="6" r="6" fill="#b07219"></circle><text x="24" y="11">Java 19.04%</text></g><g transform="translate(25, 103)"><circle cx="8" cy="6" r="6" fill="#f34b7d"></circle><text x="24" y="11">C++ 14.18%</text></g><g transform="translate(250, 103)"><circle cx="8" cy="6" r="6" fill="#F18E33"></circle><text x="24" y="11">Kotlin 8.60%</text></g><g transform="translate(25, 131)"><circle cx="8" cy="6" r="6" fill="#f1e05a"></circle><text x="24" y="11">JavaScript 8.58%</text></g><g transform="translate(250, 131)"><circle cx="8" cy="6" r="6" fill="#dea584"></circle><text x="24" y="11">Rust 7.04%</text></g><g transform="translate(25, 159)"><circle cx="8" cy="6" r="6" fill="#DA5B0B"></circle><text x="24" y="11">Jupyter Notebook 4.56%</text></g><g transform="translate(250, 159)"><circle cx="8" cy="6" r="6" fill="#3572A5"></circle><text x="24" y="11">Python 2.92%</text></g><g transform="translate(25, 187)"><circle cx="8" cy="6" r="6" fill="#00ADD8"></circle><text x="24" y="11">Go 2.32%</text></g><g transform="translate(250, 187)"><circle cx="8" cy="6" r="6" fill="#89e051"></circle><text x="24" y="11">Shell 1.98%</text></g></svg>