<svg xmlns="http://www.w3.org/2000/svg" width="500" height="220" viewBox="0 0 500 220" data-reactroot=""><style>text { font-family: &#x27;Segoe UI&#x27;, Ubuntu, Sans-Serif; fill: #333333; font-size: 12px; font-weight: 400; }</style><rect width="498" height="218" x="1" y="1" rx="10" fill="#ffffff" stroke="#e4e2e2"></rect><text x="25" y="35" style="fill:#3d7e9a;font-size:18px;font-weight:600">Top 10 Most Used Languages</text><g transform="translate(25, 50) scale(450, 8)"><rect fill="#2b7489" x="0" width="0.3075907691042757" height="1"></rect><rect fill="#b07219" x="0.3075907691042757" width="0.18471354087536576" height="1"></rect><rect fill="#f34b7d" x="0.4923043099796415" width="0.14310176256414564" height="1"></rect><rect fill="#f1e05a" x="0.6354060725437871" width="0.08791103707265283" height="1"></rect><rect fill="#F18E33" x="0.7233171096164399" width="0.086805524524147" height="1"></rect><rect fill="#dea584" x="0.8101226341405869" width="0.07101555224686265" height="1"></rect><rect fill="#DA5B0B" x="0.8811381863874496" width="0.045981099935832014" height="1"></rect><rect fill="#3572A5" x="0.9271192863232816" width="0.029431478777197664" height="1"></rect><rect fill="#00ADD8" x="0.9565507651004792" width="0.023424890387134942" height="1"></rect><rect fill="#89e051" x="0.9799756554876141" width="0.020024344512385852" height="1"></rect></g><g transform="translate(25, 75)"><circle cx="8" cy="6" r="6" fill="#2b7489"></circle><text x="24" y="11">TypeScript 30.76%</text></g><g transform="translate(250, 75)"><circle cx="8" cy="6" r="6" fill="#b07219"></circle><text x="24" y="11">Java 18.47%</text></g><g transform="translate(25, 103)"><circle cx="8" cy="6" r="6" fill="#f34b7d"></circle><text x="24" y="11">C++ 14.31%</text></g><g transform="translate(250, 103)"><circle cx="8" cy="6" r="6" fill="#f1e05a"></circle><text x="24" y="11">JavaScript 8.79%</text></g><g transform="translate(25, 131)"><circle cx="8" cy="6" r="6" fill="#F18E33"></circle><text x="24" y="11">Kotlin 8.68%</text></g><g transform="translate(250, 131)"><circle cx="8" cy="6" r="6" fill="#dea584"></circle><text x="24" y="11">Rust 7.10%</text></g><g transform="translate(25, 159)"><circle cx="8" cy="6" r="6" fill="#DA5B0B"></circle><text x="24" y="11">Jupyter Notebook 4.60%</text></g><g transform="translate(250, 159)"><circle cx="8" cy="6" r="6" fill="#3572A5"></circle><text x="24" y="11">Python 2.94%</text></g><g transform="translate(25, 187)"><circle cx="8" cy="6" r="6" fill="#00ADD8"></circle><text x="24" y="11">Go 2.34%</text></g><g transform="translate(250, 187)"><circle cx="8" cy="6" r="6" fill="#89e051"></circle><text x="24" y="11">Shell 2.00%</text></g></svg>