<svg xmlns="http://www.w3.org/2000/svg" width="500" height="220" viewBox="0 0 500 220" data-reactroot=""><style>text { font-family: &#x27;Segoe UI&#x27;, Ubuntu, Sans-Serif; fill: #333333; font-size: 12px; font-weight: 400; }</style><rect width="498" height="218" x="1" y="1" rx="10" fill="#ffffff" stroke="#e4e2e2"></rect><text x="25" y="35" style="fill:#3d7e9a;font-size:18px;font-weight:600">Top 10 Most Used Languages</text><g transform="translate(25, 50) scale(450, 8)"><rect fill="#2b7489" x="0" width="0.33149505045719596" height="1"></rect><rect fill="#b07219" x="0.33149505045719596" width="0.17148108701150203" height="1"></rect><rect fill="#dea584" x="0.502976137468698" width="0.15388999511991822" height="1"></rect><rect fill="#f34b7d" x="0.6568661325886161" width="0.12121268251327774" height="1"></rect><rect fill="#3572A5" x="0.7780788151018939" width="0.08234300919378912" height="1"></rect><rect fill="#A97BFF" x="0.860421824295683" width="0.07500151389398467" height="1"></rect><rect fill="#f1e05a" x="0.9354233381896677" width="0.020616030178140794" height="1"></rect><rect fill="#89e051" x="0.9560393683678086" width="0.017596791257173186" height="1"></rect><rect fill="#00ADD8" x="0.9736361596249817" width="0.015895530628746886" height="1"></rect><rect fill="#555555" x="0.9895316902537287" width="0.010468309746271368" height="1"></rect></g><g transform="translate(25, 75)"><circle cx="8" cy="6" r="6" fill="#2b7489"></circle><text x="24" y="11">TypeScript 33.15%</text></g><g transform="translate(250, 75)"><circle cx="8" cy="6" r="6" fill="#b07219"></circle><text x="24" y="11">Java 17.15%</text></g><g transform="translate(25, 103)"><circle cx="8" cy="6" r="6" fill="#dea584"></circle><text x="24" y="11">Rust 15.39%</text></g><g transform="translate(250, 103)"><circle cx="8" cy="6" r="6" fill="#f34b7d"></circle><text x="24" y="11">C++ 12.12%</text></g><g transform="translate(25, 131)"><circle cx="8" cy="6" r="6" fill="#3572A5"></circle><text x="24" y="11">Python 8.23%</text></g><g transform="translate(250, 131)"><circle cx="8" cy="6" r="6" fill="#A97BFF"></circle><text x="24" y="11">Kotlin 7.50%</text></g><g transform="translate(25, 159)"><circle cx="8" cy="6" r="6" fill="#f1e05a"></circle><text x="24" y="11">JavaScript 2.06%</text></g><g transform="translate(250, 159)"><circle cx="8" cy="6" r="6" fill="#89e051"></circle><text x="24" y="11">Shell 1.76%</text></g><g transform="translate(25, 187)"><circle cx="8" cy="6" r="6" fill="#00ADD8"></circle><text x="24" y="11">Go 1.59%</text></g><g transform="translate(250, 187)"><circle cx="8" cy="6" r="6" fill="#555555"></circle><text x="24" y="11">C 1.05%</text></g></svg>