<svg xmlns="http://www.w3.org/2000/svg" width="500" height="220" viewBox="0 0 500 220" data-reactroot=""><style>text { font-family: &#x27;Segoe UI&#x27;, Ubuntu, Sans-Serif; fill: #333333; font-size: 12px; font-weight: 400; }</style><rect width="498" height="218" x="1" y="1" rx="10" fill="#ffffff" stroke="#e4e2e2"></rect><text x="25" y="35" style="fill:#3d7e9a;font-size:18px;font-weight:600">Top 10 Most Used Languages</text><g transform="translate(25, 50) scale(450, 8)"><rect fill="#2b7489" x="0" width="0.3197504739955191" height="1"></rect><rect fill="#dea584" x="0.3197504739955191" width="0.18682736720948892" height="1"></rect><rect fill="#b07219" x="0.506577841205008" width="0.1645157453998171" height="1"></rect><rect fill="#f34b7d" x="0.6710935866048251" width="0.11599938213129163" height="1"></rect><rect fill="#3572A5" x="0.7870929687361168" width="0.07899834187003706" height="1"></rect><rect fill="#A97BFF" x="0.8660913106061539" width="0.0719550486845001" height="1"></rect><rect fill="#f1e05a" x="0.9380463592906539" width="0.019778633498599544" height="1"></rect><rect fill="#89e051" x="0.9578249927892535" width="0.016882032186585415" height="1"></rect><rect fill="#00ADD8" x="0.9747070249758389" width="0.015249874580853999" height="1"></rect><rect fill="#555555" x="0.989956899556693" width="0.010043100443307128" height="1"></rect></g><g transform="translate(25, 75)"><circle cx="8" cy="6" r="6" fill="#2b7489"></circle><text x="24" y="11">TypeScript 31.98%</text></g><g transform="translate(250, 75)"><circle cx="8" cy="6" r="6" fill="#dea584"></circle><text x="24" y="11">Rust 18.68%</text></g><g transform="translate(25, 103)"><circle cx="8" cy="6" r="6" fill="#b07219"></circle><text x="24" y="11">Java 16.45%</text></g><g transform="translate(250, 103)"><circle cx="8" cy="6" r="6" fill="#f34b7d"></circle><text x="24" y="11">C++ 11.60%</text></g><g transform="translate(25, 131)"><circle cx="8" cy="6" r="6" fill="#3572A5"></circle><text x="24" y="11">Python 7.90%</text></g><g transform="translate(250, 131)"><circle cx="8" cy="6" r="6" fill="#A97BFF"></circle><text x="24" y="11">Kotlin 7.20%</text></g><g transform="translate(25, 159)"><circle cx="8" cy="6" r="6" fill="#f1e05a"></circle><text x="24" y="11">JavaScript 1.98%</text></g><g transform="translate(250, 159)"><circle cx="8" cy="6" r="6" fill="#89e051"></circle><text x="24" y="11">Shell 1.69%</text></g><g transform="translate(25, 187)"><circle cx="8" cy="6" r="6" fill="#00ADD8"></circle><text x="24" y="11">Go 1.52%</text></g><g transform="translate(250, 187)"><circle cx="8" cy="6" r="6" fill="#555555"></circle><text x="24" y="11">C 1.00%</text></g></svg>