<svg xmlns="http://www.w3.org/2000/svg" width="500" height="220" viewBox="0 0 500 220" data-reactroot=""><style>text { font-family: &#x27;Segoe UI&#x27;, Ubuntu, Sans-Serif; fill: #333333; font-size: 12px; font-weight: 400; }</style><rect width="498" height="218" x="1" y="1" rx="10" fill="#ffffff" stroke="#e4e2e2"></rect><text x="25" y="35" style="fill:#3d7e9a;font-size:18px;font-weight:600">Top 10 Most Used Languages</text><g transform="translate(25, 50) scale(450, 8)"><rect fill="#2b7489" x="0" width="0.3069263051179682" height="1"></rect><rect fill="#b07219" x="0.3069263051179682" width="0.1901986266009169" height="1"></rect><rect fill="#f34b7d" x="0.4971249317188851" width="0.12106487619450959" height="1"></rect><rect fill="#f1e05a" x="0.6181898079133947" width="0.09216615336758242" height="1"></rect><rect fill="#F18E33" x="0.7103559612809771" width="0.09100713121873474" height="1"></rect><rect fill="#dea584" x="0.8013630924997118" width="0.07445288439105426" height="1"></rect><rect fill="#DA5B0B" x="0.8758159768907661" width="0.048206701340511714" height="1"></rect><rect fill="#3572A5" x="0.9240226782312778" width="0.030856036706428214" height="1"></rect><rect fill="#00ADD8" x="0.954878714937706" width="0.024558714263093345" height="1"></rect><rect fill="#89e051" x="0.9794374292007993" width="0.020562570799200583" height="1"></rect></g><g transform="translate(25, 75)"><circle cx="8" cy="6" r="6" fill="#2b7489"></circle><text x="24" y="11">TypeScript 30.69%</text></g><g transform="translate(250, 75)"><circle cx="8" cy="6" r="6" fill="#b07219"></circle><text x="24" y="11">Java 19.02%</text></g><g transform="translate(25, 103)"><circle cx="8" cy="6" r="6" fill="#f34b7d"></circle><text x="24" y="11">C++ 12.11%</text></g><g transform="translate(250, 103)"><circle cx="8" cy="6" r="6" fill="#f1e05a"></circle><text x="24" y="11">JavaScript 9.22%</text></g><g transform="translate(25, 131)"><circle cx="8" cy="6" r="6" fill="#F18E33"></circle><text x="24" y="11">Kotlin 9.10%</text></g><g transform="translate(250, 131)"><circle cx="8" cy="6" r="6" fill="#dea584"></circle><text x="24" y="11">Rust 7.45%</text></g><g transform="translate(25, 159)"><circle cx="8" cy="6" r="6" fill="#DA5B0B"></circle><text x="24" y="11">Jupyter Notebook 4.82%</text></g><g transform="translate(250, 159)"><circle cx="8" cy="6" r="6" fill="#3572A5"></circle><text x="24" y="11">Python 3.09%</text></g><g transform="translate(25, 187)"><circle cx="8" cy="6" r="6" fill="#00ADD8"></circle><text x="24" y="11">Go 2.46%</text></g><g transform="translate(250, 187)"><circle cx="8" cy="6" r="6" fill="#89e051"></circle><text x="24" y="11">Shell 2.06%</text></g></svg>