<svg xmlns="http://www.w3.org/2000/svg" width="500" height="220" viewBox="0 0 500 220" data-reactroot=""><style>text { font-family: &#x27;Segoe UI&#x27;, Ubuntu, Sans-Serif; fill: #333333; font-size: 12px; font-weight: 400; }</style><rect width="498" height="218" x="1" y="1" rx="10" fill="#ffffff" stroke="#e4e2e2"></rect><text x="25" y="35" style="fill:#3d7e9a;font-size:18px;font-weight:600">Top 10 Most Used Languages</text><g transform="translate(25, 50) scale(450, 8)"><rect fill="#2b7489" x="0" width="0.34132092110687284" height="1"></rect><rect fill="#b07219" x="0.34132092110687284" width="0.21185144986145826" height="1"></rect><rect fill="#f34b7d" x="0.5531723709683312" width="0.1066171290812413" height="1"></rect><rect fill="#f1e05a" x="0.6597895000495725" width="0.1025365400570865" height="1"></rect><rect fill="#dea584" x="0.7623260401066589" width="0.08292884016301484" height="1"></rect><rect fill="#DA5B0B" x="0.8452548802696738" width="0.053694707236001026" height="1"></rect><rect fill="#3572A5" x="0.8989495875056748" width="0.034368787146666385" height="1"></rect><rect fill="#89e051" x="0.9333183746523411" width="0.022997406582167514" height="1"></rect><rect fill="#00ADD8" x="0.9563157812345087" width="0.022862778453237597" height="1"></rect><rect fill="#00B4AB" x="0.9791785596877463" width="0.020821440312253768" height="1"></rect></g><g transform="translate(25, 75)"><circle cx="8" cy="6" r="6" fill="#2b7489"></circle><text x="24" y="11">TypeScript 34.13%</text></g><g transform="translate(250, 75)"><circle cx="8" cy="6" r="6" fill="#b07219"></circle><text x="24" y="11">Java 21.19%</text></g><g transform="translate(25, 103)"><circle cx="8" cy="6" r="6" fill="#f34b7d"></circle><text x="24" y="11">C++ 10.66%</text></g><g transform="translate(250, 103)"><circle cx="8" cy="6" r="6" fill="#f1e05a"></circle><text x="24" y="11">JavaScript 10.25%</text></g><g transform="translate(25, 131)"><circle cx="8" cy="6" r="6" fill="#dea584"></circle><text x="24" y="11">Rust 8.29%</text></g><g transform="translate(250, 131)"><circle cx="8" cy="6" r="6" fill="#DA5B0B"></circle><text x="24" y="11">Jupyter Notebook 5.37%</text></g><g transform="translate(25, 159)"><circle cx="8" cy="6" r="6" fill="#3572A5"></circle><text x="24" y="11">Python 3.44%</text></g><g transform="translate(250, 159)"><circle cx="8" cy="6" r="6" fill="#89e051"></circle><text x="24" y="11">Shell 2.30%</text></g><g transform="translate(25, 187)"><circle cx="8" cy="6" r="6" fill="#00ADD8"></circle><text x="24" y="11">Go 2.29%</text></g><g transform="translate(250, 187)"><circle cx="8" cy="6" r="6" fill="#00B4AB"></circle><text x="24" y="11">Dart 2.08%</text></g></svg>