<svg xmlns="http://www.w3.org/2000/svg" width="500" height="220" viewBox="0 0 500 220" data-reactroot=""><style>text { font-family: &#x27;Segoe UI&#x27;, Ubuntu, Sans-Serif; fill: #333333; font-size: 12px; font-weight: 400; }</style><rect width="498" height="218" x="1" y="1" rx="10" fill="#ffffff" stroke="#e4e2e2"></rect><text x="25" y="35" style="fill:#3d7e9a;font-size:18px;font-weight:600">Top 10 Most Used Languages</text><g transform="translate(25, 50) scale(450, 8)"><rect fill="#2b7489" x="0" width="0.3247141885368209" height="1"></rect><rect fill="#b07219" x="0.3247141885368209" width="0.19999487989701278" height="1"></rect><rect fill="#f34b7d" x="0.5247090684338337" width="0.14443079083647853" height="1"></rect><rect fill="#F18E33" x="0.6691398592703122" width="0.08880635770502356" height="1"></rect><rect fill="#f1e05a" x="0.7579462169753357" width="0.08858692471985723" height="1"></rect><rect fill="#dea584" x="0.8465331416951929" width="0.07265243278036221" height="1"></rect><rect fill="#89e051" x="0.919185574475555" width="0.024251916381403785" height="1"></rect><rect fill="#00ADD8" x="0.9434374908569588" width="0.023964824892477837" height="1"></rect><rect fill="#3572A5" x="0.9674023157494367" width="0.018096821147488222" height="1"></rect><rect fill="#563d7c" x="0.9854991368969249" width="0.014500863103074987" height="1"></rect></g><g transform="translate(25, 75)"><circle cx="8" cy="6" r="6" fill="#2b7489"></circle><text x="24" y="11">TypeScript 32.47%</text></g><g transform="translate(250, 75)"><circle cx="8" cy="6" r="6" fill="#b07219"></circle><text x="24" y="11">Java 20.00%</text></g><g transform="translate(25, 103)"><circle cx="8" cy="6" r="6" fill="#f34b7d"></circle><text x="24" y="11">C++ 14.44%</text></g><g transform="translate(250, 103)"><circle cx="8" cy="6" r="6" fill="#F18E33"></circle><text x="24" y="11">Kotlin 8.88%</text></g><g transform="translate(25, 131)"><circle cx="8" cy="6" r="6" fill="#f1e05a"></circle><text x="24" y="11">JavaScript 8.86%</text></g><g transform="translate(250, 131)"><circle cx="8" cy="6" r="6" fill="#dea584"></circle><text x="24" y="11">Rust 7.27%</text></g><g transform="translate(25, 159)"><circle cx="8" cy="6" r="6" fill="#89e051"></circle><text x="24" y="11">Shell 2.43%</text></g><g transform="translate(250, 159)"><circle cx="8" cy="6" r="6" fill="#00ADD8"></circle><text x="24" y="11">Go 2.40%</text></g><g transform="translate(25, 187)"><circle cx="8" cy="6" r="6" fill="#3572A5"></circle><text x="24" y="11">Python 1.81%</text></g><g transform="translate(250, 187)"><circle cx="8" cy="6" r="6" fill="#563d7c"></circle><text x="24" y="11">CSS 1.45%</text></g></svg>