<svg xmlns="http://www.w3.org/2000/svg" width="500" height="220" viewBox="0 0 500 220" data-reactroot=""><style>text { font-family: &#x27;Segoe UI&#x27;, Ubuntu, Sans-Serif; fill: #333333; font-size: 12px; font-weight: 400; }</style><rect width="498" height="218" x="1" y="1" rx="10" fill="#ffffff" stroke="#e4e2e2"></rect><text x="25" y="35" style="fill:#3d7e9a;font-size:18px;font-weight:600">Top 10 Most Used Languages</text><g transform="translate(25, 50) scale(450, 8)"><rect fill="#2b7489" x="0" width="0.3196194699628762" height="1"></rect><rect fill="#b07219" x="0.3196194699628762" width="0.2012503392660812" height="1"></rect><rect fill="#f34b7d" x="0.5208698092289574" width="0.14533744899508236" height="1"></rect><rect fill="#F18E33" x="0.6662072582240398" width="0.0893638358458191" height="1"></rect><rect fill="#f1e05a" x="0.7555710940698589" width="0.08914302537940298" height="1"></rect><rect fill="#dea584" x="0.8447141194492619" width="0.07310850534315326" height="1"></rect><rect fill="#89e051" x="0.9178226247924152" width="0.024404156757030282" height="1"></rect><rect fill="#00ADD8" x="0.9422267815494454" width="0.024115263063469207" height="1"></rect><rect fill="#3572A5" x="0.9663420446129146" width="0.01821042317405845" height="1"></rect><rect fill="#563d7c" x="0.984552467786973" width="0.015447532213026898" height="1"></rect></g><g transform="translate(25, 75)"><circle cx="8" cy="6" r="6" fill="#2b7489"></circle><text x="24" y="11">TypeScript 31.96%</text></g><g transform="translate(250, 75)"><circle cx="8" cy="6" r="6" fill="#b07219"></circle><text x="24" y="11">Java 20.13%</text></g><g transform="translate(25, 103)"><circle cx="8" cy="6" r="6" fill="#f34b7d"></circle><text x="24" y="11">C++ 14.53%</text></g><g transform="translate(250, 103)"><circle cx="8" cy="6" r="6" fill="#F18E33"></circle><text x="24" y="11">Kotlin 8.94%</text></g><g transform="translate(25, 131)"><circle cx="8" cy="6" r="6" fill="#f1e05a"></circle><text x="24" y="11">JavaScript 8.91%</text></g><g transform="translate(250, 131)"><circle cx="8" cy="6" r="6" fill="#dea584"></circle><text x="24" y="11">Rust 7.31%</text></g><g transform="translate(25, 159)"><circle cx="8" cy="6" r="6" fill="#89e051"></circle><text x="24" y="11">Shell 2.44%</text></g><g transform="translate(250, 159)"><circle cx="8" cy="6" r="6" fill="#00ADD8"></circle><text x="24" y="11">Go 2.41%</text></g><g transform="translate(25, 187)"><circle cx="8" cy="6" r="6" fill="#3572A5"></circle><text x="24" y="11">Python 1.82%</text></g><g transform="translate(250, 187)"><circle cx="8" cy="6" r="6" fill="#563d7c"></circle><text x="24" y="11">CSS 1.54%</text></g></svg>