<svg xmlns="http://www.w3.org/2000/svg" width="500" height="220" viewBox="0 0 500 220" data-reactroot=""><style>text { font-family: &#x27;Segoe UI&#x27;, Ubuntu, Sans-Serif; fill: #333333; font-size: 12px; font-weight: 400; }</style><rect width="498" height="218" x="1" y="1" rx="10" fill="#ffffff" stroke="#e4e2e2"></rect><text x="25" y="35" style="fill:#3d7e9a;font-size:18px;font-weight:600">Top 10 Most Used Languages</text><g transform="translate(25, 50) scale(450, 8)"><rect fill="#2b7489" x="0" width="0.3132767056426295" height="1"></rect><rect fill="#b07219" x="0.3132767056426295" width="0.184987738564879" height="1"></rect><rect fill="#f34b7d" x="0.4982644442075085" width="0.13044052771102563" height="1"></rect><rect fill="#f1e05a" x="0.6287049719185341" width="0.08964106938304614" height="1"></rect><rect fill="#F18E33" x="0.7183460413015803" width="0.08851380106311335" height="1"></rect><rect fill="#dea584" x="0.8068598423646937" width="0.07241309235125207" height="1"></rect><rect fill="#DA5B0B" x="0.8792729347159457" width="0.04688597822194154" height="1"></rect><rect fill="#3572A5" x="0.9261589129378872" width="0.030010671230417472" height="1"></rect><rect fill="#00ADD8" x="0.9561695841683047" width="0.02388587706851914" height="1"></rect><rect fill="#89e051" x="0.9800554612368239" width="0.019944538763176145" height="1"></rect></g><g transform="translate(25, 75)"><circle cx="8" cy="6" r="6" fill="#2b7489"></circle><text x="24" y="11">TypeScript 31.33%</text></g><g transform="translate(250, 75)"><circle cx="8" cy="6" r="6" fill="#b07219"></circle><text x="24" y="11">Java 18.50%</text></g><g transform="translate(25, 103)"><circle cx="8" cy="6" r="6" fill="#f34b7d"></circle><text x="24" y="11">C++ 13.04%</text></g><g transform="translate(250, 103)"><circle cx="8" cy="6" r="6" fill="#f1e05a"></circle><text x="24" y="11">JavaScript 8.96%</text></g><g transform="translate(25, 131)"><circle cx="8" cy="6" r="6" fill="#F18E33"></circle><text x="24" y="11">Kotlin 8.85%</text></g><g transform="translate(250, 131)"><circle cx="8" cy="6" r="6" fill="#dea584"></circle><text x="24" y="11">Rust 7.24%</text></g><g transform="translate(25, 159)"><circle cx="8" cy="6" r="6" fill="#DA5B0B"></circle><text x="24" y="11">Jupyter Notebook 4.69%</text></g><g transform="translate(250, 159)"><circle cx="8" cy="6" r="6" fill="#3572A5"></circle><text x="24" y="11">Python 3.00%</text></g><g transform="translate(25, 187)"><circle cx="8" cy="6" r="6" fill="#00ADD8"></circle><text x="24" y="11">Go 2.39%</text></g><g transform="translate(250, 187)"><circle cx="8" cy="6" r="6" fill="#89e051"></circle><text x="24" y="11">Shell 1.99%</text></g></svg>