<svg xmlns="http://www.w3.org/2000/svg" width="500" height="220" viewBox="0 0 500 220" data-reactroot=""><style>text { font-family: &#x27;Segoe UI&#x27;, Ubuntu, Sans-Serif; fill: #333333; font-size: 12px; font-weight: 400; }</style><rect width="498" height="218" x="1" y="1" rx="10" fill="#ffffff" stroke="#e4e2e2"></rect><text x="25" y="35" style="fill:#3d7e9a;font-size:18px;font-weight:600">Top 10 Most Used Languages</text><g transform="translate(25, 50) scale(450, 8)"><rect fill="#2b7489" x="0" width="0.33362307998796564" height="1"></rect><rect fill="#b07219" x="0.33362307998796564" width="0.18268187768842342" height="1"></rect><rect fill="#f34b7d" x="0.5163049576763891" width="0.12844911002512582" height="1"></rect><rect fill="#f1e05a" x="0.6447540677015149" width="0.08286401964531107" height="1"></rect><rect fill="#A97BFF" x="0.727618087346826" width="0.07897967978793473" height="1"></rect><rect fill="#dea584" x="0.8065977671347607" width="0.06482871337848936" height="1"></rect><rect fill="#3572A5" x="0.8714264805132501" width="0.04339450809474634" height="1"></rect><rect fill="#DA5B0B" x="0.9148209886079964" width="0.04183573072263195" height="1"></rect><rect fill="#89e051" x="0.9566567193306283" width="0.022030232312308405" height="1"></rect><rect fill="#00ADD8" x="0.9786869516429367" width="0.021313048357063286" height="1"></rect></g><g transform="translate(25, 75)"><circle cx="8" cy="6" r="6" fill="#2b7489"></circle><text x="24" y="11">TypeScript 33.36%</text></g><g transform="translate(250, 75)"><circle cx="8" cy="6" r="6" fill="#b07219"></circle><text x="24" y="11">Java 18.27%</text></g><g transform="translate(25, 103)"><circle cx="8" cy="6" r="6" fill="#f34b7d"></circle><text x="24" y="11">C++ 12.84%</text></g><g transform="translate(250, 103)"><circle cx="8" cy="6" r="6" fill="#f1e05a"></circle><text x="24" y="11">JavaScript 8.29%</text></g><g transform="translate(25, 131)"><circle cx="8" cy="6" r="6" fill="#A97BFF"></circle><text x="24" y="11">Kotlin 7.90%</text></g><g transform="translate(250, 131)"><circle cx="8" cy="6" r="6" fill="#dea584"></circle><text x="24" y="11">Rust 6.48%</text></g><g transform="translate(25, 159)"><circle cx="8" cy="6" r="6" fill="#3572A5"></circle><text x="24" y="11">Python 4.34%</text></g><g transform="translate(250, 159)"><circle cx="8" cy="6" r="6" fill="#DA5B0B"></circle><text x="24" y="11">Jupyter Notebook 4.18%</text></g><g transform="translate(25, 187)"><circle cx="8" cy="6" r="6" fill="#89e051"></circle><text x="24" y="11">Shell 2.20%</text></g><g transform="translate(250, 187)"><circle cx="8" cy="6" r="6" fill="#00ADD8"></circle><text x="24" y="11">Go 2.13%</text></g></svg>