<svg xmlns="http://www.w3.org/2000/svg" width="500" height="220" viewBox="0 0 500 220"><style>
  text { font-family: &#x27;Segoe UI&#x27;, Ubuntu, Sans-Serif; }
  .lang { fill: #333333; font-size: 12px; font-weight: 400; }
  .title { fill: #3d7e9a; font-size: 18px; font-weight: 600; }
  .bg { fill: #ffffff; stroke: #e4e2e2; }

  @media (prefers-color-scheme: dark) {
    .lang { fill: #c9d1d9; }
    .title { fill: #58a6ff; }
    .bg { fill: #0d1117; stroke: #30363d; }
  }
</style><rect class="bg" width="498" height="218" x="1" y="1" rx="10"></rect><text x="25" y="35" class="title">Top 10 Most Used Languages</text><g transform="translate(25, 50) scale(450, 8)"><rect fill="#3178c6" x="0" width="0.3364039354020173" height="1"></rect><rect fill="#dea584" x="0.3364039354020173" width="0.18224002165444492" height="1"></rect><rect fill="#b07219" x="0.5186439570564623" width="0.16047623778020606" height="1"></rect><rect fill="#f34b7d" x="0.6791201948366683" width="0.11315114175861027" height="1"></rect><rect fill="#3572A5" x="0.7922713365952786" width="0.07705862234261358" height="1"></rect><rect fill="#A97BFF" x="0.8693299589378922" width="0.07018826966450945" height="1"></rect><rect fill="#f1e05a" x="0.9395182286024016" width="0.01931165799844392" height="1"></rect><rect fill="#89e051" x="0.9588298866008456" width="0.01649818023991898" height="1"></rect><rect fill="#00ADD8" x="0.9753280668407646" width="0.0148754302720873" height="1"></rect><rect fill="#555555" x="0.9902034971128518" width="0.009796502887148208" height="1"></rect></g><g transform="translate(25, 75)"><circle cx="8" cy="6" r="6" fill="#3178c6"></circle><text x="24" y="11" class="lang">TypeScript 33.64%</text></g><g transform="translate(250, 75)"><circle cx="8" cy="6" r="6" fill="#dea584"></circle><text x="24" y="11" class="lang">Rust 18.22%</text></g><g transform="translate(25, 103)"><circle cx="8" cy="6" r="6" fill="#b07219"></circle><text x="24" y="11" class="lang">Java 16.05%</text></g><g transform="translate(250, 103)"><circle cx="8" cy="6" r="6" fill="#f34b7d"></circle><text x="24" y="11" class="lang">C++ 11.32%</text></g><g transform="translate(25, 131)"><circle cx="8" cy="6" r="6" fill="#3572A5"></circle><text x="24" y="11" class="lang">Python 7.71%</text></g><g transform="translate(250, 131)"><circle cx="8" cy="6" r="6" fill="#A97BFF"></circle><text x="24" y="11" class="lang">Kotlin 7.02%</text></g><g transform="translate(25, 159)"><circle cx="8" cy="6" r="6" fill="#f1e05a"></circle><text x="24" y="11" class="lang">JavaScript 1.93%</text></g><g transform="translate(250, 159)"><circle cx="8" cy="6" r="6" fill="#89e051"></circle><text x="24" y="11" class="lang">Shell 1.65%</text></g><g transform="translate(25, 187)"><circle cx="8" cy="6" r="6" fill="#00ADD8"></circle><text x="24" y="11" class="lang">Go 1.49%</text></g><g transform="translate(250, 187)"><circle cx="8" cy="6" r="6" fill="#555555"></circle><text x="24" y="11" class="lang">C 0.98%</text></g></svg>