<svg xmlns="http://www.w3.org/2000/svg" width="500" height="220" viewBox="0 0 500 220" data-reactroot=""><style>text { font-family: &#x27;Segoe UI&#x27;, Ubuntu, Sans-Serif; fill: #333333; font-size: 12px; font-weight: 400; }</style><rect width="498" height="218" x="1" y="1" rx="10" fill="#ffffff" stroke="#e4e2e2"></rect><text x="25" y="35" style="fill:#3d7e9a;font-size:18px;font-weight:600">Top 10 Most Used Languages</text><g transform="translate(25, 50) scale(450, 8)"><rect fill="#2b7489" x="0" width="0.337706453532933" height="1"></rect><rect fill="#b07219" x="0.337706453532933" width="0.20940121125595337" height="1"></rect><rect fill="#f34b7d" x="0.5471076647888864" width="0.10548407428458842" height="1"></rect><rect fill="#f1e05a" x="0.6525917390734748" width="0.10147131184321961" height="1"></rect><rect fill="#dea584" x="0.7540630509166943" width="0.08196969900155456" height="1"></rect><rect fill="#DA5B0B" x="0.8360327499182489" width="0.05307368318982636" height="1"></rect><rect fill="#3572A5" x="0.8891064331080754" width="0.03397128347536174" height="1"></rect><rect fill="#F18E33" x="0.9230777165834371" width="0.027535390192148394" height="1"></rect><rect fill="#00ADD8" x="0.9506131067755854" width="0.027038179010467223" height="1"></rect><rect fill="#89e051" x="0.9776512857860526" width="0.02234871421394729" height="1"></rect></g><g transform="translate(25, 75)"><circle cx="8" cy="6" r="6" fill="#2b7489"></circle><text x="24" y="11">TypeScript 33.77%</text></g><g transform="translate(250, 75)"><circle cx="8" cy="6" r="6" fill="#b07219"></circle><text x="24" y="11">Java 20.94%</text></g><g transform="translate(25, 103)"><circle cx="8" cy="6" r="6" fill="#f34b7d"></circle><text x="24" y="11">C++ 10.55%</text></g><g transform="translate(250, 103)"><circle cx="8" cy="6" r="6" fill="#f1e05a"></circle><text x="24" y="11">JavaScript 10.15%</text></g><g transform="translate(25, 131)"><circle cx="8" cy="6" r="6" fill="#dea584"></circle><text x="24" y="11">Rust 8.20%</text></g><g transform="translate(250, 131)"><circle cx="8" cy="6" r="6" fill="#DA5B0B"></circle><text x="24" y="11">Jupyter Notebook 5.31%</text></g><g transform="translate(25, 159)"><circle cx="8" cy="6" r="6" fill="#3572A5"></circle><text x="24" y="11">Python 3.40%</text></g><g transform="translate(250, 159)"><circle cx="8" cy="6" r="6" fill="#F18E33"></circle><text x="24" y="11">Kotlin 2.75%</text></g><g transform="translate(25, 187)"><circle cx="8" cy="6" r="6" fill="#00ADD8"></circle><text x="24" y="11">Go 2.70%</text></g><g transform="translate(250, 187)"><circle cx="8" cy="6" r="6" fill="#89e051"></circle><text x="24" y="11">Shell 2.23%</text></g></svg>