<svg xmlns="http://www.w3.org/2000/svg" width="500" height="220" viewBox="0 0 500 220" data-reactroot=""><style>text { font-family: &#x27;Segoe UI&#x27;, Ubuntu, Sans-Serif; fill: #333333; font-size: 12px; font-weight: 400; }</style><rect width="498" height="218" x="1" y="1" rx="10" fill="#ffffff" stroke="#e4e2e2"></rect><text x="25" y="35" style="fill:#3d7e9a;font-size:18px;font-weight:600">Top 10 Most Used Languages</text><g transform="translate(25, 50) scale(450, 8)"><rect fill="#2b7489" x="0" width="0.29829965491415855" height="1"></rect><rect fill="#b07219" x="0.29829965491415855" width="0.189572172392416" height="1"></rect><rect fill="#f34b7d" x="0.4878718273065745" width="0.12005547174273726" height="1"></rect><rect fill="#dea584" x="0.6079272990493118" width="0.10989926933537829" height="1"></rect><rect fill="#f1e05a" x="0.7178265683846901" width="0.07263501528339682" height="1"></rect><rect fill="#A97BFF" x="0.7904615836680868" width="0.06961202031097144" height="1"></rect><rect fill="#3572A5" x="0.8600736039790583" width="0.06764470850459219" height="1"></rect><rect fill="#DA5B0B" x="0.9277183124836504" width="0.036873658447436224" height="1"></rect><rect fill="#89e051" x="0.9645919709310866" width="0.019417260025585803" height="1"></rect><rect fill="#00ADD8" x="0.9840092309566724" width="0.015990769043327444" height="1"></rect></g><g transform="translate(25, 75)"><circle cx="8" cy="6" r="6" fill="#2b7489"></circle><text x="24" y="11">TypeScript 29.83%</text></g><g transform="translate(250, 75)"><circle cx="8" cy="6" r="6" fill="#b07219"></circle><text x="24" y="11">Java 18.96%</text></g><g transform="translate(25, 103)"><circle cx="8" cy="6" r="6" fill="#f34b7d"></circle><text x="24" y="11">C++ 12.01%</text></g><g transform="translate(250, 103)"><circle cx="8" cy="6" r="6" fill="#dea584"></circle><text x="24" y="11">Rust 10.99%</text></g><g transform="translate(25, 131)"><circle cx="8" cy="6" r="6" fill="#f1e05a"></circle><text x="24" y="11">JavaScript 7.26%</text></g><g transform="translate(250, 131)"><circle cx="8" cy="6" r="6" fill="#A97BFF"></circle><text x="24" y="11">Kotlin 6.96%</text></g><g transform="translate(25, 159)"><circle cx="8" cy="6" r="6" fill="#3572A5"></circle><text x="24" y="11">Python 6.76%</text></g><g transform="translate(250, 159)"><circle cx="8" cy="6" r="6" fill="#DA5B0B"></circle><text x="24" y="11">Jupyter Notebook 3.69%</text></g><g transform="translate(25, 187)"><circle cx="8" cy="6" r="6" fill="#89e051"></circle><text x="24" y="11">Shell 1.94%</text></g><g transform="translate(250, 187)"><circle cx="8" cy="6" r="6" fill="#00ADD8"></circle><text x="24" y="11">Go 1.60%</text></g></svg>