<svg xmlns="http://www.w3.org/2000/svg" width="500" height="220" viewBox="0 0 500 220" data-reactroot=""><style>text { font-family: &#x27;Segoe UI&#x27;, Ubuntu, Sans-Serif; fill: #333333; font-size: 12px; font-weight: 400; }</style><rect width="498" height="218" x="1" y="1" rx="10" fill="#ffffff" stroke="#e4e2e2"></rect><text x="25" y="35" style="fill:#3d7e9a;font-size:18px;font-weight:600">Top 10 Most Used Languages</text><g transform="translate(25, 50) scale(450, 8)"><rect fill="#2b7489" x="0" width="0.3175908413964495" height="1"></rect><rect fill="#b07219" x="0.3175908413964495" width="0.1963900994983965" height="1"></rect><rect fill="#f34b7d" x="0.513980940894846" width="0.14629827590932762" height="1"></rect><rect fill="#F18E33" x="0.6602792168041737" width="0.08874452941552687" height="1"></rect><rect fill="#f1e05a" x="0.7490237462197006" width="0.08852524920282506" height="1"></rect><rect fill="#dea584" x="0.8375489954225257" width="0.07260185109046223" height="1"></rect><rect fill="#3572A5" x="0.9101508465129879" width="0.030088899852899524" height="1"></rect><rect fill="#00ADD8" x="0.9402397463658875" width="0.023948140229696022" height="1"></rect><rect fill="#89e051" x="0.9641878865955835" width="0.02047163519081947" height="1"></rect><rect fill="#563d7c" x="0.984659521786403" width="0.0153404782135972" height="1"></rect></g><g transform="translate(25, 75)"><circle cx="8" cy="6" r="6" fill="#2b7489"></circle><text x="24" y="11">TypeScript 31.76%</text></g><g transform="translate(250, 75)"><circle cx="8" cy="6" r="6" fill="#b07219"></circle><text x="24" y="11">Java 19.64%</text></g><g transform="translate(25, 103)"><circle cx="8" cy="6" r="6" fill="#f34b7d"></circle><text x="24" y="11">C++ 14.63%</text></g><g transform="translate(250, 103)"><circle cx="8" cy="6" r="6" fill="#F18E33"></circle><text x="24" y="11">Kotlin 8.87%</text></g><g transform="translate(25, 131)"><circle cx="8" cy="6" r="6" fill="#f1e05a"></circle><text x="24" y="11">JavaScript 8.85%</text></g><g transform="translate(250, 131)"><circle cx="8" cy="6" r="6" fill="#dea584"></circle><text x="24" y="11">Rust 7.26%</text></g><g transform="translate(25, 159)"><circle cx="8" cy="6" r="6" fill="#3572A5"></circle><text x="24" y="11">Python 3.01%</text></g><g transform="translate(250, 159)"><circle cx="8" cy="6" r="6" fill="#00ADD8"></circle><text x="24" y="11">Go 2.39%</text></g><g transform="translate(25, 187)"><circle cx="8" cy="6" r="6" fill="#89e051"></circle><text x="24" y="11">Shell 2.05%</text></g><g transform="translate(250, 187)"><circle cx="8" cy="6" r="6" fill="#563d7c"></circle><text x="24" y="11">CSS 1.53%</text></g></svg>