<svg xmlns="http://www.w3.org/2000/svg" width="500" height="220" viewBox="0 0 500 220" data-reactroot=""><style>text { font-family: &#x27;Segoe UI&#x27;, Ubuntu, Sans-Serif; fill: #333333; font-size: 12px; font-weight: 400; }</style><rect width="498" height="218" x="1" y="1" rx="10" fill="#ffffff" stroke="#e4e2e2"></rect><text x="25" y="35" style="fill:#3d7e9a;font-size:18px;font-weight:600">Top 10 Most Used Languages</text><g transform="translate(25, 50) scale(450, 8)"><rect fill="#2b7489" x="0" width="0.3167713943456729" height="1"></rect><rect fill="#b07219" x="0.3167713943456729" width="0.19642003572416916" height="1"></rect><rect fill="#f34b7d" x="0.5131914300698421" width="0.09894491782086438" height="1"></rect><rect fill="#f1e05a" x="0.6121363478907065" width="0.09518091408201851" height="1"></rect><rect fill="#F18E33" x="0.707317261972725" width="0.08782030317163277" height="1"></rect><rect fill="#dea584" x="0.7951375651443578" width="0.07688824295531382" height="1"></rect><rect fill="#DA5B0B" x="0.8720258080996717" width="0.04978354559476097" height="1"></rect><rect fill="#3572A5" x="0.9218093536944326" width="0.031865339621509586" height="1"></rect><rect fill="#00ADD8" x="0.9536746933159422" width="0.02536203136218231" height="1"></rect><rect fill="#89e051" x="0.9790367246781245" width="0.020963275321875537" height="1"></rect></g><g transform="translate(25, 75)"><circle cx="8" cy="6" r="6" fill="#2b7489"></circle><text x="24" y="11">TypeScript 31.68%</text></g><g transform="translate(250, 75)"><circle cx="8" cy="6" r="6" fill="#b07219"></circle><text x="24" y="11">Java 19.64%</text></g><g transform="translate(25, 103)"><circle cx="8" cy="6" r="6" fill="#f34b7d"></circle><text x="24" y="11">C++ 9.89%</text></g><g transform="translate(250, 103)"><circle cx="8" cy="6" r="6" fill="#f1e05a"></circle><text x="24" y="11">JavaScript 9.52%</text></g><g transform="translate(25, 131)"><circle cx="8" cy="6" r="6" fill="#F18E33"></circle><text x="24" y="11">Kotlin 8.78%</text></g><g transform="translate(250, 131)"><circle cx="8" cy="6" r="6" fill="#dea584"></circle><text x="24" y="11">Rust 7.69%</text></g><g transform="translate(25, 159)"><circle cx="8" cy="6" r="6" fill="#DA5B0B"></circle><text x="24" y="11">Jupyter Notebook 4.98%</text></g><g transform="translate(250, 159)"><circle cx="8" cy="6" r="6" fill="#3572A5"></circle><text x="24" y="11">Python 3.19%</text></g><g transform="translate(25, 187)"><circle cx="8" cy="6" r="6" fill="#00ADD8"></circle><text x="24" y="11">Go 2.54%</text></g><g transform="translate(250, 187)"><circle cx="8" cy="6" r="6" fill="#89e051"></circle><text x="24" y="11">Shell 2.10%</text></g></svg>