<svg xmlns="http://www.w3.org/2000/svg" width="500" height="220" viewBox="0 0 500 220" data-reactroot=""><style>text { font-family: &#x27;Segoe UI&#x27;, Ubuntu, Sans-Serif; fill: #333333; font-size: 12px; font-weight: 400; }</style><rect width="498" height="218" x="1" y="1" rx="10" fill="#ffffff" stroke="#e4e2e2"></rect><text x="25" y="35" style="fill:#3d7e9a;font-size:18px;font-weight:600">Top 10 Most Used Languages</text><g transform="translate(25, 50) scale(450, 8)"><rect fill="#2b7489" x="0" width="0.3109412825746428" height="1"></rect><rect fill="#b07219" x="0.3109412825746428" width="0.19271372288413158" height="1"></rect><rect fill="#f34b7d" x="0.5036550054587744" width="0.10948592585560354" height="1"></rect><rect fill="#f1e05a" x="0.613140931314378" width="0.09338491479565197" height="1"></rect><rect fill="#F18E33" x="0.7065258461100299" width="0.0922105662885081" height="1"></rect><rect fill="#dea584" x="0.798736412398538" width="0.0754374139649689" height="1"></rect><rect fill="#DA5B0B" x="0.8741738263635069" width="0.048844163858166804" height="1"></rect><rect fill="#3572A5" x="0.9230179902216737" width="0.03126406227749561" height="1"></rect><rect fill="#00ADD8" x="0.9542820524991693" width="0.024883467033749464" height="1"></rect><rect fill="#89e051" x="0.9791655195329187" width="0.020834480467081216" height="1"></rect></g><g transform="translate(25, 75)"><circle cx="8" cy="6" r="6" fill="#2b7489"></circle><text x="24" y="11">TypeScript 31.09%</text></g><g transform="translate(250, 75)"><circle cx="8" cy="6" r="6" fill="#b07219"></circle><text x="24" y="11">Java 19.27%</text></g><g transform="translate(25, 103)"><circle cx="8" cy="6" r="6" fill="#f34b7d"></circle><text x="24" y="11">C++ 10.95%</text></g><g transform="translate(250, 103)"><circle cx="8" cy="6" r="6" fill="#f1e05a"></circle><text x="24" y="11">JavaScript 9.34%</text></g><g transform="translate(25, 131)"><circle cx="8" cy="6" r="6" fill="#F18E33"></circle><text x="24" y="11">Kotlin 9.22%</text></g><g transform="translate(250, 131)"><circle cx="8" cy="6" r="6" fill="#dea584"></circle><text x="24" y="11">Rust 7.54%</text></g><g transform="translate(25, 159)"><circle cx="8" cy="6" r="6" fill="#DA5B0B"></circle><text x="24" y="11">Jupyter Notebook 4.88%</text></g><g transform="translate(250, 159)"><circle cx="8" cy="6" r="6" fill="#3572A5"></circle><text x="24" y="11">Python 3.13%</text></g><g transform="translate(25, 187)"><circle cx="8" cy="6" r="6" fill="#00ADD8"></circle><text x="24" y="11">Go 2.49%</text></g><g transform="translate(250, 187)"><circle cx="8" cy="6" r="6" fill="#89e051"></circle><text x="24" y="11">Shell 2.08%</text></g></svg>