<svg xmlns="http://www.w3.org/2000/svg" width="500" height="220" viewBox="0 0 500 220"><style>
  text { font-family: &#x27;Segoe UI&#x27;, Ubuntu, Sans-Serif; }
  .lang { fill: #333333; font-size: 12px; font-weight: 400; }
  .title { fill: #3d7e9a; font-size: 18px; font-weight: 600; }
  .bg { fill: #ffffff; stroke: #e4e2e2; }

  @media (prefers-color-scheme: dark) {
    .lang { fill: #c9d1d9; }
    .title { fill: #58a6ff; }
    .bg { fill: #0d1117; stroke: #30363d; }
  }
</style><rect class="bg" width="498" height="218" x="1" y="1" rx="10"></rect><text x="25" y="35" class="title">Top 10 Most Used Languages</text><g transform="translate(25, 50) scale(450, 8)"><rect fill="#3178c6" x="0" width="0.3198587575061556" height="1"></rect><rect fill="#dea584" x="0.3198587575061556" width="0.1868011937409921" height="1"></rect><rect fill="#b07219" x="0.5066599512471477" width="0.16449269766466046" height="1"></rect><rect fill="#f34b7d" x="0.6711526489118081" width="0.11598313126708895" height="1"></rect><rect fill="#3572A5" x="0.7871357801788971" width="0.07898727464448482" height="1"></rect><rect fill="#A97BFF" x="0.8661230548233819" width="0.07194496818490274" height="1"></rect><rect fill="#f1e05a" x="0.9380680230082846" width="0.019762878263430782" height="1"></rect><rect fill="#89e051" x="0.9578309012717154" width="0.016879667108362677" height="1"></rect><rect fill="#00ADD8" x="0.9747105683800781" width="0.015247738158776846" height="1"></rect><rect fill="#555555" x="0.989958306538855" width="0.010041693461144988" height="1"></rect></g><g transform="translate(25, 75)"><circle cx="8" cy="6" r="6" fill="#3178c6"></circle><text x="24" y="11" class="lang">TypeScript 31.99%</text></g><g transform="translate(250, 75)"><circle cx="8" cy="6" r="6" fill="#dea584"></circle><text x="24" y="11" class="lang">Rust 18.68%</text></g><g transform="translate(25, 103)"><circle cx="8" cy="6" r="6" fill="#b07219"></circle><text x="24" y="11" class="lang">Java 16.45%</text></g><g transform="translate(250, 103)"><circle cx="8" cy="6" r="6" fill="#f34b7d"></circle><text x="24" y="11" class="lang">C++ 11.60%</text></g><g transform="translate(25, 131)"><circle cx="8" cy="6" r="6" fill="#3572A5"></circle><text x="24" y="11" class="lang">Python 7.90%</text></g><g transform="translate(250, 131)"><circle cx="8" cy="6" r="6" fill="#A97BFF"></circle><text x="24" y="11" class="lang">Kotlin 7.19%</text></g><g transform="translate(25, 159)"><circle cx="8" cy="6" r="6" fill="#f1e05a"></circle><text x="24" y="11" class="lang">JavaScript 1.98%</text></g><g transform="translate(250, 159)"><circle cx="8" cy="6" r="6" fill="#89e051"></circle><text x="24" y="11" class="lang">Shell 1.69%</text></g><g transform="translate(25, 187)"><circle cx="8" cy="6" r="6" fill="#00ADD8"></circle><text x="24" y="11" class="lang">Go 1.52%</text></g><g transform="translate(250, 187)"><circle cx="8" cy="6" r="6" fill="#555555"></circle><text x="24" y="11" class="lang">C 1.00%</text></g></svg>