<svg xmlns="http://www.w3.org/2000/svg" width="500" height="220" viewBox="0 0 500 220" data-reactroot=""><style>text { font-family: &#x27;Segoe UI&#x27;, Ubuntu, Sans-Serif; fill: #333333; font-size: 12px; font-weight: 400; }</style><rect width="498" height="218" x="1" y="1" rx="10" fill="#ffffff" stroke="#e4e2e2"></rect><text x="25" y="35" style="fill:#3d7e9a;font-size:18px;font-weight:600">Top 10 Most Used Languages</text><g transform="translate(25, 50) scale(450, 8)"><rect fill="#2b7489" x="0" width="0.3056979861760088" height="1"></rect><rect fill="#b07219" x="0.3056979861760088" width="0.19207358410518013" height="1"></rect><rect fill="#f34b7d" x="0.4977715702811889" width="0.12211095057799212" height="1"></rect><rect fill="#dea584" x="0.619882520859181" width="0.09287675187233292" height="1"></rect><rect fill="#f1e05a" x="0.712759272731514" width="0.07395951941146713" height="1"></rect><rect fill="#A97BFF" x="0.7867187921429811" width="0.07080385298924492" height="1"></rect><rect fill="#3572A5" x="0.8575226451322261" width="0.06880285868825164" height="1"></rect><rect fill="#DA5B0B" x="0.9263255038204777" width="0.037504975149764766" height="1"></rect><rect fill="#89e051" x="0.9638304789702425" width="0.019904972817093813" height="1"></rect><rect fill="#00ADD8" x="0.9837354517873363" width="0.01626454821266378" height="1"></rect></g><g transform="translate(25, 75)"><circle cx="8" cy="6" r="6" fill="#2b7489"></circle><text x="24" y="11">TypeScript 30.57%</text></g><g transform="translate(250, 75)"><circle cx="8" cy="6" r="6" fill="#b07219"></circle><text x="24" y="11">Java 19.21%</text></g><g transform="translate(25, 103)"><circle cx="8" cy="6" r="6" fill="#f34b7d"></circle><text x="24" y="11">C++ 12.21%</text></g><g transform="translate(250, 103)"><circle cx="8" cy="6" r="6" fill="#dea584"></circle><text x="24" y="11">Rust 9.29%</text></g><g transform="translate(25, 131)"><circle cx="8" cy="6" r="6" fill="#f1e05a"></circle><text x="24" y="11">JavaScript 7.40%</text></g><g transform="translate(250, 131)"><circle cx="8" cy="6" r="6" fill="#A97BFF"></circle><text x="24" y="11">Kotlin 7.08%</text></g><g transform="translate(25, 159)"><circle cx="8" cy="6" r="6" fill="#3572A5"></circle><text x="24" y="11">Python 6.88%</text></g><g transform="translate(250, 159)"><circle cx="8" cy="6" r="6" fill="#DA5B0B"></circle><text x="24" y="11">Jupyter Notebook 3.75%</text></g><g transform="translate(25, 187)"><circle cx="8" cy="6" r="6" fill="#89e051"></circle><text x="24" y="11">Shell 1.99%</text></g><g transform="translate(250, 187)"><circle cx="8" cy="6" r="6" fill="#00ADD8"></circle><text x="24" y="11">Go 1.63%</text></g></svg>