<svg xmlns="http://www.w3.org/2000/svg" width="500" height="220" viewBox="0 0 500 220" data-reactroot=""><style>text { font-family: &#x27;Segoe UI&#x27;, Ubuntu, Sans-Serif; fill: #333333; font-size: 12px; font-weight: 400; }</style><rect width="498" height="218" x="1" y="1" rx="10" fill="#ffffff" stroke="#e4e2e2"></rect><text x="25" y="35" style="fill:#3d7e9a;font-size:18px;font-weight:600">Top 10 Most Used Languages</text><g transform="translate(25, 50) scale(450, 8)"><rect fill="#2b7489" x="0" width="0.3347556848456919" height="1"></rect><rect fill="#b07219" x="0.3347556848456919" width="0.1733190282118118" height="1"></rect><rect fill="#dea584" x="0.5080747130575037" width="0.15548971039329484" height="1"></rect><rect fill="#f34b7d" x="0.6635644234507986" width="0.11889428131165483" height="1"></rect><rect fill="#3572A5" x="0.7824587047624534" width="0.08322556488428692" height="1"></rect><rect fill="#A97BFF" x="0.8656842696467403" width="0.06906565474733219" height="1"></rect><rect fill="#f1e05a" x="0.9347499243940725" width="0.02083699362029983" height="1"></rect><rect fill="#89e051" x="0.9555869180143722" width="0.01776667290715592" height="1"></rect><rect fill="#00ADD8" x="0.9733535909215282" width="0.016065899566526015" height="1"></rect><rect fill="#555555" x="0.9894194904880542" width="0.010580509511945736" height="1"></rect></g><g transform="translate(25, 75)"><circle cx="8" cy="6" r="6" fill="#2b7489"></circle><text x="24" y="11">TypeScript 33.48%</text></g><g transform="translate(250, 75)"><circle cx="8" cy="6" r="6" fill="#b07219"></circle><text x="24" y="11">Java 17.33%</text></g><g transform="translate(25, 103)"><circle cx="8" cy="6" r="6" fill="#dea584"></circle><text x="24" y="11">Rust 15.55%</text></g><g transform="translate(250, 103)"><circle cx="8" cy="6" r="6" fill="#f34b7d"></circle><text x="24" y="11">C++ 11.89%</text></g><g transform="translate(25, 131)"><circle cx="8" cy="6" r="6" fill="#3572A5"></circle><text x="24" y="11">Python 8.32%</text></g><g transform="translate(250, 131)"><circle cx="8" cy="6" r="6" fill="#A97BFF"></circle><text x="24" y="11">Kotlin 6.91%</text></g><g transform="translate(25, 159)"><circle cx="8" cy="6" r="6" fill="#f1e05a"></circle><text x="24" y="11">JavaScript 2.08%</text></g><g transform="translate(250, 159)"><circle cx="8" cy="6" r="6" fill="#89e051"></circle><text x="24" y="11">Shell 1.78%</text></g><g transform="translate(25, 187)"><circle cx="8" cy="6" r="6" fill="#00ADD8"></circle><text x="24" y="11">Go 1.61%</text></g><g transform="translate(250, 187)"><circle cx="8" cy="6" r="6" fill="#555555"></circle><text x="24" y="11">C 1.06%</text></g></svg>