<svg xmlns="http://www.w3.org/2000/svg" width="500" height="220" viewBox="0 0 500 220" data-reactroot=""><style>text { font-family: &#x27;Segoe UI&#x27;, Ubuntu, Sans-Serif; fill: #333333; font-size: 12px; font-weight: 400; }</style><rect width="498" height="218" x="1" y="1" rx="10" fill="#ffffff" stroke="#e4e2e2"></rect><text x="25" y="35" style="fill:#3d7e9a;font-size:18px;font-weight:600">Top 10 Most Used Languages</text><g transform="translate(25, 50) scale(450, 8)"><rect fill="#DA5B0B" x="0" width="0.34883423529715757" height="1"></rect><rect fill="#2b7489" x="0.34883423529715757" width="0.20663358371095814" height="1"></rect><rect fill="#b07219" x="0.5554678190081157" width="0.11539618744555699" height="1"></rect><rect fill="#dea584" x="0.6708640064536727" width="0.0888102617600185" height="1"></rect><rect fill="#f34b7d" x="0.7596742682136912" width="0.07336322799254254" height="1"></rect><rect fill="#f1e05a" x="0.8330374962062338" width="0.05806203251274114" height="1"></rect><rect fill="#3572A5" x="0.8910995287189749" width="0.044631771462206205" height="1"></rect><rect fill="#A97BFF" x="0.9357313001811811" width="0.04253835700249327" height="1"></rect><rect fill="#89e051" x="0.9782696571836744" width="0.011958739589314126" height="1"></rect><rect fill="#00ADD8" x="0.9902283967729886" width="0.009771603227011528" height="1"></rect></g><g transform="translate(25, 75)"><circle cx="8" cy="6" r="6" fill="#DA5B0B"></circle><text x="24" y="11">Jupyter Notebook 34.88%</text></g><g transform="translate(250, 75)"><circle cx="8" cy="6" r="6" fill="#2b7489"></circle><text x="24" y="11">TypeScript 20.66%</text></g><g transform="translate(25, 103)"><circle cx="8" cy="6" r="6" fill="#b07219"></circle><text x="24" y="11">Java 11.54%</text></g><g transform="translate(250, 103)"><circle cx="8" cy="6" r="6" fill="#dea584"></circle><text x="24" y="11">Rust 8.88%</text></g><g transform="translate(25, 131)"><circle cx="8" cy="6" r="6" fill="#f34b7d"></circle><text x="24" y="11">C++ 7.34%</text></g><g transform="translate(250, 131)"><circle cx="8" cy="6" r="6" fill="#f1e05a"></circle><text x="24" y="11">JavaScript 5.81%</text></g><g transform="translate(25, 159)"><circle cx="8" cy="6" r="6" fill="#3572A5"></circle><text x="24" y="11">Python 4.46%</text></g><g transform="translate(250, 159)"><circle cx="8" cy="6" r="6" fill="#A97BFF"></circle><text x="24" y="11">Kotlin 4.25%</text></g><g transform="translate(25, 187)"><circle cx="8" cy="6" r="6" fill="#89e051"></circle><text x="24" y="11">Shell 1.20%</text></g><g transform="translate(250, 187)"><circle cx="8" cy="6" r="6" fill="#00ADD8"></circle><text x="24" y="11">Go 0.98%</text></g></svg>