<svg xmlns="http://www.w3.org/2000/svg" width="500" height="220" viewBox="0 0 500 220"><style>
  text { font-family: &#x27;Segoe UI&#x27;, Ubuntu, Sans-Serif; }
  .lang { fill: #333333; font-size: 12px; font-weight: 400; }
  .title { fill: #3d7e9a; font-size: 18px; font-weight: 600; }
  .bg { fill: #ffffff; stroke: #e4e2e2; }

  @media (prefers-color-scheme: dark) {
    .lang { fill: #c9d1d9; }
    .title { fill: #58a6ff; }
    .bg { fill: #0d1117; stroke: #30363d; }
  }
</style><rect class="bg" width="498" height="218" x="1" y="1" rx="10"></rect><text x="25" y="35" class="title">Top 10 Most Used Languages</text><g transform="translate(25, 50) scale(450, 8)"><rect fill="#3178c6" x="0" width="0.35195471279188145" height="1"></rect><rect fill="#dea584" x="0.35195471279188145" width="0.18524158238891641" height="1"></rect><rect fill="#b07219" x="0.5371962951807978" width="0.1497845659083951" height="1"></rect><rect fill="#f34b7d" x="0.6869808610891929" width="0.10561248746101402" height="1"></rect><rect fill="#3572A5" x="0.7925933485502069" width="0.07192461922553249" height="1"></rect><rect fill="#A97BFF" x="0.8645179677757394" width="0.0655947648644545" height="1"></rect><rect fill="#00B4AB" x="0.9301127326401939" width="0.022214229353299465" height="1"></rect><rect fill="#f1e05a" x="0.9523269619934933" width="0.018289495627845386" height="1"></rect><rect fill="#89e051" x="0.9706164576213387" width="0.015499182321212106" height="1"></rect><rect fill="#00ADD8" x="0.9861156399425508" width="0.01388436005744909" height="1"></rect></g><g transform="translate(25, 75)"><circle cx="8" cy="6" r="6" fill="#3178c6"></circle><text x="24" y="11" class="lang">TypeScript 35.20%</text></g><g transform="translate(250, 75)"><circle cx="8" cy="6" r="6" fill="#dea584"></circle><text x="24" y="11" class="lang">Rust 18.52%</text></g><g transform="translate(25, 103)"><circle cx="8" cy="6" r="6" fill="#b07219"></circle><text x="24" y="11" class="lang">Java 14.98%</text></g><g transform="translate(250, 103)"><circle cx="8" cy="6" r="6" fill="#f34b7d"></circle><text x="24" y="11" class="lang">C++ 10.56%</text></g><g transform="translate(25, 131)"><circle cx="8" cy="6" r="6" fill="#3572A5"></circle><text x="24" y="11" class="lang">Python 7.19%</text></g><g transform="translate(250, 131)"><circle cx="8" cy="6" r="6" fill="#A97BFF"></circle><text x="24" y="11" class="lang">Kotlin 6.56%</text></g><g transform="translate(25, 159)"><circle cx="8" cy="6" r="6" fill="#00B4AB"></circle><text x="24" y="11" class="lang">Dart 2.22%</text></g><g transform="translate(250, 159)"><circle cx="8" cy="6" r="6" fill="#f1e05a"></circle><text x="24" y="11" class="lang">JavaScript 1.83%</text></g><g transform="translate(25, 187)"><circle cx="8" cy="6" r="6" fill="#89e051"></circle><text x="24" y="11" class="lang">Shell 1.55%</text></g><g transform="translate(250, 187)"><circle cx="8" cy="6" r="6" fill="#00ADD8"></circle><text x="24" y="11" class="lang">Go 1.39%</text></g></svg>