<svg xmlns="http://www.w3.org/2000/svg" width="500" height="220" viewBox="0 0 500 220" data-reactroot=""><style>text { font-family: &#x27;Segoe UI&#x27;, Ubuntu, Sans-Serif; fill: #333333; font-size: 12px; font-weight: 400; }</style><rect width="498" height="218" x="1" y="1" rx="10" fill="#ffffff" stroke="#e4e2e2"></rect><text x="25" y="35" style="fill:#3d7e9a;font-size:18px;font-weight:600">Top 10 Most Used Languages</text><g transform="translate(25, 50) scale(450, 8)"><rect fill="#2b7489" x="0" width="0.23481066758576624" height="1"></rect><rect fill="#3D6117" x="0.23481066758576624" width="0.20412884875334714" height="1"></rect><rect fill="#f1e05a" x="0.4389395163391134" width="0.18877477117454858" height="1"></rect><rect fill="#b07219" x="0.627714287513662" width="0.12862661216955784" height="1"></rect><rect fill="#f34b7d" x="0.7563408996832198" width="0.0904412307766296" height="1"></rect><rect fill="#A97BFF" x="0.8467821304598494" width="0.05560972314224421" height="1"></rect><rect fill="#dea584" x="0.9023918536020936" width="0.04564600429282101" height="1"></rect><rect fill="#3572A5" x="0.9480378578949147" width="0.02144406651181671" height="1"></rect><rect fill="#89e051" x="0.9694819244067314" width="0.015511523001058606" height="1"></rect><rect fill="#00ADD8" x="0.98499344740779" width="0.015006552592210058" height="1"></rect></g><g transform="translate(25, 75)"><circle cx="8" cy="6" r="6" fill="#2b7489"></circle><text x="24" y="11">TypeScript 23.48%</text></g><g transform="translate(250, 75)"><circle cx="8" cy="6" r="6" fill="#3D6117"></circle><text x="24" y="11">TeX 20.41%</text></g><g transform="translate(25, 103)"><circle cx="8" cy="6" r="6" fill="#f1e05a"></circle><text x="24" y="11">JavaScript 18.88%</text></g><g transform="translate(250, 103)"><circle cx="8" cy="6" r="6" fill="#b07219"></circle><text x="24" y="11">Java 12.86%</text></g><g transform="translate(25, 131)"><circle cx="8" cy="6" r="6" fill="#f34b7d"></circle><text x="24" y="11">C++ 9.04%</text></g><g transform="translate(250, 131)"><circle cx="8" cy="6" r="6" fill="#A97BFF"></circle><text x="24" y="11">Kotlin 5.56%</text></g><g transform="translate(25, 159)"><circle cx="8" cy="6" r="6" fill="#dea584"></circle><text x="24" y="11">Rust 4.56%</text></g><g transform="translate(250, 159)"><circle cx="8" cy="6" r="6" fill="#3572A5"></circle><text x="24" y="11">Python 2.14%</text></g><g transform="translate(25, 187)"><circle cx="8" cy="6" r="6" fill="#89e051"></circle><text x="24" y="11">Shell 1.55%</text></g><g transform="translate(250, 187)"><circle cx="8" cy="6" r="6" fill="#00ADD8"></circle><text x="24" y="11">Go 1.50%</text></g></svg>