<svg xmlns="http://www.w3.org/2000/svg" width="500" height="220" viewBox="0 0 500 220" data-reactroot=""><style>text { font-family: &#x27;Segoe UI&#x27;, Ubuntu, Sans-Serif; fill: #333333; font-size: 12px; font-weight: 400; }</style><rect width="498" height="218" x="1" y="1" rx="10" fill="#ffffff" stroke="#e4e2e2"></rect><text x="25" y="35" style="fill:#3d7e9a;font-size:18px;font-weight:600">Top 10 Most Used Languages</text><g transform="translate(25, 50) scale(450, 8)"><rect fill="#2b7489" x="0" width="0.33797882138555657" height="1"></rect><rect fill="#b07219" x="0.33797882138555657" width="0.18508138460093618" height="1"></rect><rect fill="#f34b7d" x="0.5230602059864927" width="0.13013627533846406" height="1"></rect><rect fill="#f1e05a" x="0.6531964813249568" width="0.08395242967510418" height="1"></rect><rect fill="#A97BFF" x="0.737148911000061" width="0.08001706942940984" height="1"></rect><rect fill="#dea584" x="0.8171659804294709" width="0.06568023159063686" height="1"></rect><rect fill="#DA5B0B" x="0.8828462120201077" width="0.0423852385683428" height="1"></rect><rect fill="#3572A5" x="0.9252314505884505" width="0.030855959389257132" height="1"></rect><rect fill="#89e051" x="0.9560874099777076" width="0.022319597056017715" height="1"></rect><rect fill="#00ADD8" x="0.9784070070337253" width="0.021592992966274697" height="1"></rect></g><g transform="translate(25, 75)"><circle cx="8" cy="6" r="6" fill="#2b7489"></circle><text x="24" y="11">TypeScript 33.80%</text></g><g transform="translate(250, 75)"><circle cx="8" cy="6" r="6" fill="#b07219"></circle><text x="24" y="11">Java 18.51%</text></g><g transform="translate(25, 103)"><circle cx="8" cy="6" r="6" fill="#f34b7d"></circle><text x="24" y="11">C++ 13.01%</text></g><g transform="translate(250, 103)"><circle cx="8" cy="6" r="6" fill="#f1e05a"></circle><text x="24" y="11">JavaScript 8.40%</text></g><g transform="translate(25, 131)"><circle cx="8" cy="6" r="6" fill="#A97BFF"></circle><text x="24" y="11">Kotlin 8.00%</text></g><g transform="translate(250, 131)"><circle cx="8" cy="6" r="6" fill="#dea584"></circle><text x="24" y="11">Rust 6.57%</text></g><g transform="translate(25, 159)"><circle cx="8" cy="6" r="6" fill="#DA5B0B"></circle><text x="24" y="11">Jupyter Notebook 4.24%</text></g><g transform="translate(250, 159)"><circle cx="8" cy="6" r="6" fill="#3572A5"></circle><text x="24" y="11">Python 3.09%</text></g><g transform="translate(25, 187)"><circle cx="8" cy="6" r="6" fill="#89e051"></circle><text x="24" y="11">Shell 2.23%</text></g><g transform="translate(250, 187)"><circle cx="8" cy="6" r="6" fill="#00ADD8"></circle><text x="24" y="11">Go 2.16%</text></g></svg>