<svg xmlns="http://www.w3.org/2000/svg" width="500" height="220" viewBox="0 0 500 220" data-reactroot=""><style>text { font-family: &#x27;Segoe UI&#x27;, Ubuntu, Sans-Serif; fill: #333333; font-size: 12px; font-weight: 400; }</style><rect width="498" height="218" x="1" y="1" rx="10" fill="#ffffff" stroke="#e4e2e2"></rect><text x="25" y="35" style="fill:#3d7e9a;font-size:18px;font-weight:600">Top 10 Most Used Languages</text><g transform="translate(25, 50) scale(450, 8)"><rect fill="#2b7489" x="0" width="0.3166819661490975" height="1"></rect><rect fill="#b07219" x="0.3166819661490975" width="0.1959430695167764" height="1"></rect><rect fill="#f34b7d" x="0.5126250356658739" width="0.14467263513605905" height="1"></rect><rect fill="#F18E33" x="0.6572976708019329" width="0.08854252602811155" height="1"></rect><rect fill="#f1e05a" x="0.7458401968300444" width="0.08832374494866393" height="1"></rect><rect fill="#dea584" x="0.8341639417787083" width="0.07243659222944301" height="1"></rect><rect fill="#3572A5" x="0.9066005340081513" width="0.030020410451536802" height="1"></rect><rect fill="#89e051" x="0.9366209444596881" width="0.024179867218116533" height="1"></rect><rect fill="#00ADD8" x="0.9608008116778046" width="0.02389362863917257" height="1"></rect><rect fill="#563d7c" x="0.9846944403169772" width="0.01530555968302268" height="1"></rect></g><g transform="translate(25, 75)"><circle cx="8" cy="6" r="6" fill="#2b7489"></circle><text x="24" y="11">TypeScript 31.67%</text></g><g transform="translate(250, 75)"><circle cx="8" cy="6" r="6" fill="#b07219"></circle><text x="24" y="11">Java 19.59%</text></g><g transform="translate(25, 103)"><circle cx="8" cy="6" r="6" fill="#f34b7d"></circle><text x="24" y="11">C++ 14.47%</text></g><g transform="translate(250, 103)"><circle cx="8" cy="6" r="6" fill="#F18E33"></circle><text x="24" y="11">Kotlin 8.85%</text></g><g transform="translate(25, 131)"><circle cx="8" cy="6" r="6" fill="#f1e05a"></circle><text x="24" y="11">JavaScript 8.83%</text></g><g transform="translate(250, 131)"><circle cx="8" cy="6" r="6" fill="#dea584"></circle><text x="24" y="11">Rust 7.24%</text></g><g transform="translate(25, 159)"><circle cx="8" cy="6" r="6" fill="#3572A5"></circle><text x="24" y="11">Python 3.00%</text></g><g transform="translate(250, 159)"><circle cx="8" cy="6" r="6" fill="#89e051"></circle><text x="24" y="11">Shell 2.42%</text></g><g transform="translate(25, 187)"><circle cx="8" cy="6" r="6" fill="#00ADD8"></circle><text x="24" y="11">Go 2.39%</text></g><g transform="translate(250, 187)"><circle cx="8" cy="6" r="6" fill="#563d7c"></circle><text x="24" y="11">CSS 1.53%</text></g></svg>