<svg xmlns="http://www.w3.org/2000/svg" width="500" height="220" viewBox="0 0 500 220" data-reactroot=""><style>text { font-family: &#x27;Segoe UI&#x27;, Ubuntu, Sans-Serif; fill: #333333; font-size: 12px; font-weight: 400; }</style><rect width="498" height="218" x="1" y="1" rx="10" fill="#ffffff" stroke="#e4e2e2"></rect><text x="25" y="35" style="fill:#3d7e9a;font-size:18px;font-weight:600">Top 10 Most Used Languages</text><g transform="translate(25, 50) scale(450, 8)"><rect fill="#2b7489" x="0" width="0.31975899744028763" height="1"></rect><rect fill="#dea584" x="0.31975899744028763" width="0.18683234738270263" height="1"></rect><rect fill="#b07219" x="0.5065913448229903" width="0.16452013082214953" height="1"></rect><rect fill="#f34b7d" x="0.6711114756451398" width="0.1159758177238723" height="1"></rect><rect fill="#3572A5" x="0.7870872933690122" width="0.07900044769335397" height="1"></rect><rect fill="#A97BFF" x="0.8660877410623662" width="0.07195696675791409" height="1"></rect><rect fill="#f1e05a" x="0.9380447078202803" width="0.01977916072874909" height="1"></rect><rect fill="#89e051" x="0.9578238685490293" width="0.016882482203334805" height="1"></rect><rect fill="#00ADD8" x="0.9747063507523641" width="0.015250281089911178" height="1"></rect><rect fill="#555555" x="0.9899566318422753" width="0.01004336815772476" height="1"></rect></g><g transform="translate(25, 75)"><circle cx="8" cy="6" r="6" fill="#2b7489"></circle><text x="24" y="11">TypeScript 31.98%</text></g><g transform="translate(250, 75)"><circle cx="8" cy="6" r="6" fill="#dea584"></circle><text x="24" y="11">Rust 18.68%</text></g><g transform="translate(25, 103)"><circle cx="8" cy="6" r="6" fill="#b07219"></circle><text x="24" y="11">Java 16.45%</text></g><g transform="translate(250, 103)"><circle cx="8" cy="6" r="6" fill="#f34b7d"></circle><text x="24" y="11">C++ 11.60%</text></g><g transform="translate(25, 131)"><circle cx="8" cy="6" r="6" fill="#3572A5"></circle><text x="24" y="11">Python 7.90%</text></g><g transform="translate(250, 131)"><circle cx="8" cy="6" r="6" fill="#A97BFF"></circle><text x="24" y="11">Kotlin 7.20%</text></g><g transform="translate(25, 159)"><circle cx="8" cy="6" r="6" fill="#f1e05a"></circle><text x="24" y="11">JavaScript 1.98%</text></g><g transform="translate(250, 159)"><circle cx="8" cy="6" r="6" fill="#89e051"></circle><text x="24" y="11">Shell 1.69%</text></g><g transform="translate(25, 187)"><circle cx="8" cy="6" r="6" fill="#00ADD8"></circle><text x="24" y="11">Go 1.53%</text></g><g transform="translate(250, 187)"><circle cx="8" cy="6" r="6" fill="#555555"></circle><text x="24" y="11">C 1.00%</text></g></svg>