<svg xmlns="http://www.w3.org/2000/svg" width="500" height="220" viewBox="0 0 500 220" data-reactroot=""><style>text { font-family: &#x27;Segoe UI&#x27;, Ubuntu, Sans-Serif; fill: #333333; font-size: 12px; font-weight: 400; }</style><rect width="498" height="218" x="1" y="1" rx="10" fill="#ffffff" stroke="#e4e2e2"></rect><text x="25" y="35" style="fill:#3d7e9a;font-size:18px;font-weight:600">Top 10 Most Used Languages</text><g transform="translate(25, 50) scale(450, 8)"><rect fill="#2b7489" x="0" width="0.33251462657530717" height="1"></rect><rect fill="#b07219" x="0.33251462657530717" width="0.17215872516343142" height="1"></rect><rect fill="#dea584" x="0.5046733517387386" width="0.15444876764844723" height="1"></rect><rect fill="#f34b7d" x="0.6591221193871859" width="0.1180983306392779" height="1"></rect><rect fill="#3572A5" x="0.7772204500264638" width="0.08266840230592072" height="1"></rect><rect fill="#A97BFF" x="0.8598888523323845" width="0.07529789577581644" height="1"></rect><rect fill="#f1e05a" x="0.935186748108201" width="0.020697498104624717" height="1"></rect><rect fill="#89e051" x="0.9558842462128257" width="0.01764773198678244" height="1"></rect><rect fill="#00ADD8" x="0.9735319781996082" width="0.01595834465790264" height="1"></rect><rect fill="#555555" x="0.9894903228575109" width="0.010509677142489307" height="1"></rect></g><g transform="translate(25, 75)"><circle cx="8" cy="6" r="6" fill="#2b7489"></circle><text x="24" y="11">TypeScript 33.25%</text></g><g transform="translate(250, 75)"><circle cx="8" cy="6" r="6" fill="#b07219"></circle><text x="24" y="11">Java 17.22%</text></g><g transform="translate(25, 103)"><circle cx="8" cy="6" r="6" fill="#dea584"></circle><text x="24" y="11">Rust 15.44%</text></g><g transform="translate(250, 103)"><circle cx="8" cy="6" r="6" fill="#f34b7d"></circle><text x="24" y="11">C++ 11.81%</text></g><g transform="translate(25, 131)"><circle cx="8" cy="6" r="6" fill="#3572A5"></circle><text x="24" y="11">Python 8.27%</text></g><g transform="translate(250, 131)"><circle cx="8" cy="6" r="6" fill="#A97BFF"></circle><text x="24" y="11">Kotlin 7.53%</text></g><g transform="translate(25, 159)"><circle cx="8" cy="6" r="6" fill="#f1e05a"></circle><text x="24" y="11">JavaScript 2.07%</text></g><g transform="translate(250, 159)"><circle cx="8" cy="6" r="6" fill="#89e051"></circle><text x="24" y="11">Shell 1.76%</text></g><g transform="translate(25, 187)"><circle cx="8" cy="6" r="6" fill="#00ADD8"></circle><text x="24" y="11">Go 1.60%</text></g><g transform="translate(250, 187)"><circle cx="8" cy="6" r="6" fill="#555555"></circle><text x="24" y="11">C 1.05%</text></g></svg>