<svg xmlns="http://www.w3.org/2000/svg" width="500" height="220" viewBox="0 0 500 220" data-reactroot=""><style>text { font-family: &#x27;Segoe UI&#x27;, Ubuntu, Sans-Serif; fill: #333333; font-size: 12px; font-weight: 400; }</style><rect width="498" height="218" x="1" y="1" rx="10" fill="#ffffff" stroke="#e4e2e2"></rect><text x="25" y="35" style="fill:#3d7e9a;font-size:18px;font-weight:600">Top 10 Most Used Languages</text><g transform="translate(25, 50) scale(450, 8)"><rect fill="#2b7489" x="0" width="0.3553580232365706" height="1"></rect><rect fill="#b07219" x="0.3553580232365706" width="0.1895282069855276" height="1"></rect><rect fill="#f34b7d" x="0.5448862302220983" width="0.13687204809860942" height="1"></rect><rect fill="#f1e05a" x="0.6817582783207077" width="0.08829775527692311" height="1"></rect><rect fill="#A97BFF" x="0.7700560335976308" width="0.08415870322988159" height="1"></rect><rect fill="#dea584" x="0.8542147368275124" width="0.06885018919028982" height="1"></rect><rect fill="#89e051" x="0.9230649260178022" width="0.023474845532865045" height="1"></rect><rect fill="#00ADD8" x="0.9465397715506673" width="0.022710632866863235" height="1"></rect><rect fill="#3572A5" x="0.9692504044175305" width="0.017149729363008813" height="1"></rect><rect fill="#563d7c" x="0.9864001337805394" width="0.013599866219460736" height="1"></rect></g><g transform="translate(25, 75)"><circle cx="8" cy="6" r="6" fill="#2b7489"></circle><text x="24" y="11">TypeScript 35.54%</text></g><g transform="translate(250, 75)"><circle cx="8" cy="6" r="6" fill="#b07219"></circle><text x="24" y="11">Java 18.95%</text></g><g transform="translate(25, 103)"><circle cx="8" cy="6" r="6" fill="#f34b7d"></circle><text x="24" y="11">C++ 13.69%</text></g><g transform="translate(250, 103)"><circle cx="8" cy="6" r="6" fill="#f1e05a"></circle><text x="24" y="11">JavaScript 8.83%</text></g><g transform="translate(25, 131)"><circle cx="8" cy="6" r="6" fill="#A97BFF"></circle><text x="24" y="11">Kotlin 8.42%</text></g><g transform="translate(250, 131)"><circle cx="8" cy="6" r="6" fill="#dea584"></circle><text x="24" y="11">Rust 6.89%</text></g><g transform="translate(25, 159)"><circle cx="8" cy="6" r="6" fill="#89e051"></circle><text x="24" y="11">Shell 2.35%</text></g><g transform="translate(250, 159)"><circle cx="8" cy="6" r="6" fill="#00ADD8"></circle><text x="24" y="11">Go 2.27%</text></g><g transform="translate(25, 187)"><circle cx="8" cy="6" r="6" fill="#3572A5"></circle><text x="24" y="11">Python 1.71%</text></g><g transform="translate(250, 187)"><circle cx="8" cy="6" r="6" fill="#563d7c"></circle><text x="24" y="11">CSS 1.36%</text></g></svg>