<svg xmlns="http://www.w3.org/2000/svg" width="500" height="220" viewBox="0 0 500 220" data-reactroot=""><style>text { font-family: &#x27;Segoe UI&#x27;, Ubuntu, Sans-Serif; fill: #333333; font-size: 12px; font-weight: 400; }</style><rect width="498" height="218" x="1" y="1" rx="10" fill="#ffffff" stroke="#e4e2e2"></rect><text x="25" y="35" style="fill:#3d7e9a;font-size:18px;font-weight:600">Top 10 Most Used Languages</text><g transform="translate(25, 50) scale(450, 8)"><rect fill="#2b7489" x="0" width="0.3511615760390103" height="1"></rect><rect fill="#b07219" x="0.3511615760390103" width="0.19201446648261697" height="1"></rect><rect fill="#f34b7d" x="0.5431760425216273" width="0.13866755619148777" height="1"></rect><rect fill="#A97BFF" x="0.6818435987131151" width="0.08526270974424699" height="1"></rect><rect fill="#f1e05a" x="0.767106308457362" width="0.08505203281293205" height="1"></rect><rect fill="#dea584" x="0.8521583412702941" width="0.06975337631727946" height="1"></rect><rect fill="#89e051" x="0.9219117175875735" width="0.023782792083814307" height="1"></rect><rect fill="#00ADD8" x="0.9456945096713878" width="0.023008554361231934" height="1"></rect><rect fill="#3572A5" x="0.9687030640326197" width="0.017374702089651813" height="1"></rect><rect fill="#563d7c" x="0.9860777661222716" width="0.013922233877728375" height="1"></rect></g><g transform="translate(25, 75)"><circle cx="8" cy="6" r="6" fill="#2b7489"></circle><text x="24" y="11">TypeScript 35.12%</text></g><g transform="translate(250, 75)"><circle cx="8" cy="6" r="6" fill="#b07219"></circle><text x="24" y="11">Java 19.20%</text></g><g transform="translate(25, 103)"><circle cx="8" cy="6" r="6" fill="#f34b7d"></circle><text x="24" y="11">C++ 13.87%</text></g><g transform="translate(250, 103)"><circle cx="8" cy="6" r="6" fill="#A97BFF"></circle><text x="24" y="11">Kotlin 8.53%</text></g><g transform="translate(25, 131)"><circle cx="8" cy="6" r="6" fill="#f1e05a"></circle><text x="24" y="11">JavaScript 8.51%</text></g><g transform="translate(250, 131)"><circle cx="8" cy="6" r="6" fill="#dea584"></circle><text x="24" y="11">Rust 6.98%</text></g><g transform="translate(25, 159)"><circle cx="8" cy="6" r="6" fill="#89e051"></circle><text x="24" y="11">Shell 2.38%</text></g><g transform="translate(250, 159)"><circle cx="8" cy="6" r="6" fill="#00ADD8"></circle><text x="24" y="11">Go 2.30%</text></g><g transform="translate(25, 187)"><circle cx="8" cy="6" r="6" fill="#3572A5"></circle><text x="24" y="11">Python 1.74%</text></g><g transform="translate(250, 187)"><circle cx="8" cy="6" r="6" fill="#563d7c"></circle><text x="24" y="11">CSS 1.39%</text></g></svg>