<svg xmlns="http://www.w3.org/2000/svg" width="500" height="220" viewBox="0 0 500 220" data-reactroot=""><style>text { font-family: &#x27;Segoe UI&#x27;, Ubuntu, Sans-Serif; fill: #333333; font-size: 12px; font-weight: 400; }</style><rect width="498" height="218" x="1" y="1" rx="10" fill="#ffffff" stroke="#e4e2e2"></rect><text x="25" y="35" style="fill:#3d7e9a;font-size:18px;font-weight:600">Top 10 Most Used Languages</text><g transform="translate(25, 50) scale(450, 8)"><rect fill="#2b7489" x="0" width="0.2851814032538823" height="1"></rect><rect fill="#b07219" x="0.2851814032538823" width="0.16030578818240382" height="1"></rect><rect fill="#f1e05a" x="0.4454871914362861" width="0.15529543990460395" height="1"></rect><rect fill="#f34b7d" x="0.60078263134089" width="0.11480009320303183" height="1"></rect><rect fill="#dea584" x="0.7155827245439219" width="0.09413848874025138" height="1"></rect><rect fill="#A97BFF" x="0.8097212132841733" width="0.06656478296029276" height="1"></rect><rect fill="#3572A5" x="0.8762859962444661" width="0.05448745185652216" height="1"></rect><rect fill="#DA5B0B" x="0.9307734481009883" width="0.03525952932468921" height="1"></rect><rect fill="#89e051" x="0.9660329774256775" width="0.0186762428213106" height="1"></rect><rect fill="#00ADD8" x="0.9847092202469881" width="0.015290779753011966" height="1"></rect></g><g transform="translate(25, 75)"><circle cx="8" cy="6" r="6" fill="#2b7489"></circle><text x="24" y="11">TypeScript 28.52%</text></g><g transform="translate(250, 75)"><circle cx="8" cy="6" r="6" fill="#b07219"></circle><text x="24" y="11">Java 16.03%</text></g><g transform="translate(25, 103)"><circle cx="8" cy="6" r="6" fill="#f1e05a"></circle><text x="24" y="11">JavaScript 15.53%</text></g><g transform="translate(250, 103)"><circle cx="8" cy="6" r="6" fill="#f34b7d"></circle><text x="24" y="11">C++ 11.48%</text></g><g transform="translate(25, 131)"><circle cx="8" cy="6" r="6" fill="#dea584"></circle><text x="24" y="11">Rust 9.41%</text></g><g transform="translate(250, 131)"><circle cx="8" cy="6" r="6" fill="#A97BFF"></circle><text x="24" y="11">Kotlin 6.66%</text></g><g transform="translate(25, 159)"><circle cx="8" cy="6" r="6" fill="#3572A5"></circle><text x="24" y="11">Python 5.45%</text></g><g transform="translate(250, 159)"><circle cx="8" cy="6" r="6" fill="#DA5B0B"></circle><text x="24" y="11">Jupyter Notebook 3.53%</text></g><g transform="translate(25, 187)"><circle cx="8" cy="6" r="6" fill="#89e051"></circle><text x="24" y="11">Shell 1.87%</text></g><g transform="translate(250, 187)"><circle cx="8" cy="6" r="6" fill="#00ADD8"></circle><text x="24" y="11">Go 1.53%</text></g></svg>